<svg width="100" height="100" viewBox="0 0 100 100" fill="none" xmlns="http://www.w3.org/2000/svg">
<path d="M73.4423 53.8337L64.0888 45.3789L54.6341 53.7324" stroke="#162113" stroke-width="6"/>
<path d="M54.9306 38.7045L57.5287 40.2045L60.5287 35.0084L57.9306 33.5084L54.9306 38.7045ZM59.7047 56.5214C56.103 62.7597 48.1261 64.8971 41.8878 61.2955L38.8878 66.4916C47.9958 71.7501 59.6423 68.6295 64.9008 59.5214L59.7047 56.5214ZM41.8878 61.2955C35.6495 57.6938 33.5121 49.7169 37.1137 43.4786L31.9176 40.4786C26.6591 49.5866 29.7797 61.2331 38.8878 66.4916L41.8878 61.2955ZM37.1137 43.4786C40.7154 37.2402 48.6923 35.1028 54.9306 38.7045L57.9306 33.5084C48.8226 28.2498 37.1761 31.3705 31.9176 40.4786L37.1137 43.4786ZM61.325 48.1789C61.7202 50.9649 61.222 53.8933 59.7047 56.5214L64.9008 59.5214C67.1124 55.6909 67.8424 51.403 67.2656 47.3363L61.325 48.1789Z" fill="#162113"/>
</svg>
