<svg width="50" height="50" viewBox="0 0 50 50" fill="none" xmlns="http://www.w3.org/2000/svg">
<mask id="mask0_712_52" style="mask-type:alpha" maskUnits="userSpaceOnUse" x="0" y="0" width="50" height="50">
<rect width="50" height="50" fill="#D9D9D9"/>
</mask>
<g mask="url(#mask0_712_52)">
<path d="M12.5 45.8333C10.7639 45.8333 9.28819 45.2257 8.07292 44.0104C6.85764 42.7951 6.25 41.3194 6.25 39.5833V10.4166C6.25 8.68052 6.85764 7.20482 8.07292 5.98954C9.28819 4.77426 10.7639 4.16663 12.5 4.16663H35.4167V37.5H12.5C11.9097 37.5 11.4149 37.6996 11.0156 38.0989C10.6163 38.4982 10.4167 38.993 10.4167 39.5833C10.4167 40.1736 10.6163 40.6684 11.0156 41.0677C11.4149 41.467 11.9097 41.6666 12.5 41.6666H39.5833V8.33329H43.75V45.8333H12.5ZM18.75 33.3333H31.25V8.33329H18.75V33.3333ZM14.5833 33.3333V8.33329H12.5C11.9097 8.33329 11.4149 8.53295 11.0156 8.93225C10.6163 9.33156 10.4167 9.82635 10.4167 10.4166V33.6979C10.7639 33.5937 11.1024 33.5069 11.4323 33.4375C11.7622 33.368 12.1181 33.3333 12.5 33.3333H14.5833Z" fill="#FFFEF7"/>
</g>
</svg>
