
<svg width="1440" height="40" viewBox="0 0 1440 40" fill="none" xmlns="http://www.w3.org/2000/svg">
<path d="M1435.24 5.00002L1440 5.00002L1440 40.0001L-3.49692e-06 40L-7.28526e-08 0.83321L2.37939 2.49988L8.5658 2.49988L9.99341 4.16655L13.3246 4.16656L15.704 2.91655L17.6074 2.91655L22.3662 4.99989L36.1666 4.99989L39.4977 2.91655L43.3047 2.91655L43.3047 4.16656L48.0635 4.16656L49.4911 2.91655L53.2981 2.49989L57.1051 2.08322L63.2915 1.66655L73.7607 2.08322L76.616 1.24988L87.0853 4.16656L95.1752 0.41655L107.072 0.833219L107.072 1.66656L113.734 1.66656L113.734 2.49989L115.638 2.49989L119.445 1.24989L128.011 0.833221L136.1 0.833222L140.859 2.49989L143.239 0.833223L147.046 0.833223L152.28 2.08323L163.225 2.08323L195.109 0.833227L201.295 4.99991L207.482 2.4999L215.096 2.08323L218.903 4.58324L224.613 4.58324L226.993 6.24991L235.558 6.24991L238.89 4.58324L240.317 4.58324L245.076 6.66658L255.545 5.83325L264.587 5.83325L266.966 6.66658L270.773 6.24992L272.201 4.16658L278.387 4.16658L286.953 2.91658L293.14 0.833236L293.615 2.08324L301.705 1.2499L305.512 1.66657L305.512 2.49991L306.94 2.49991L311.223 0.833237L314.078 1.66657L318.837 4.16658L325.975 3.74991L335.968 5.41659L342.155 4.99992L349.293 4.58325L355.003 4.99992L356.907 5.41659L357.383 8.74993L371.183 8.33327L376.418 10.8333L383.08 9.99994L391.646 9.99994L394.501 8.33327L397.832 6.24993L402.115 4.58326L402.591 6.6666L409.253 6.6666L409.729 5.41659L414.964 4.58326L414.964 5.41659L419.722 5.41659L422.578 6.6666L425.909 5.4166L428.764 4.16659L432.095 5.83326L435.426 6.24993L440.185 4.99993L444.468 4.16659L446.371 4.99993L447.799 5.83326L451.13 5.4166L457.792 3.33326L459.696 2.49992L462.551 2.49992L466.834 4.16659L470.165 4.99993L474.924 4.99993L480.159 4.1666L485.869 4.99993L486.345 6.24994L488.249 6.24994L492.531 4.99993L494.435 7.49994L496.814 7.49994L500.621 7.08327L508.235 6.24994L508.235 8.33328L508.711 8.33328L510.615 7.08327L514.898 7.08327L518.705 8.33328L518.705 6.24994L519.656 5.83327L524.415 7.08328L530.601 7.08328L532.505 7.08328L534.884 4.99994L540.595 6.24994L541.547 4.58327L547.257 4.1666L550.588 4.58327L554.395 4.58327L565.34 2.49993L566.292 3.74994L568.672 3.74994L574.382 4.99994L578.665 4.99994L581.52 4.1666L587.707 4.16661L592.465 6.24995L596.748 4.58327L603.886 6.24995L605.314 5.83328L610.549 5.41661L611.976 4.99994L616.259 4.58328L618.163 7.08328L622.445 7.08328L625.301 4.99994L627.204 5.41661L633.391 9.58329L641.956 9.58329L644.336 10.8333L650.046 10.8333L654.329 7.91662L669.081 8.33329L669.081 5.83328L671.461 4.58328L671.461 5.83328L672.412 5.83328L676.695 4.58328L682.882 4.58328L683.833 5.41662L688.592 4.58328L689.544 5.41662L691.447 5.41662L698.11 3.74995L703.344 3.33328L708.579 4.58328L713.338 0.416604L718.572 2.08328L721.428 1.66661L731.897 1.66661L732.849 0.416606L745.697 5.41662L753.311 5.41662L758.07 7.0833L766.16 5.41662L769.015 5.41663L775.202 6.24996L781.388 6.24996L786.623 4.58329L792.333 6.66663L799.947 6.24996L801.851 4.58329L806.609 4.58329L809.941 3.74996L819.458 2.49995L825.169 4.58329L829.927 1.66662L855.149 0.833285L864.666 0.833286L879.418 0.833287L884.653 0.833287L886.081 1.66662L889.412 0.833288L898.929 0.833289L906.067 1.24996L911.302 2.49996L916.061 1.66663L920.344 0.833291L931.765 -4.44313e-05L935.096 2.49996L940.806 3.74997L944.137 3.3333L949.372 0.833293L951.751 1.66663L961.745 1.66663L968.407 1.66663L970.787 2.0833L976.973 3.74997L979.828 4.16664L984.111 3.3333L986.015 3.3333L990.297 4.99998L1002.19 4.99998L1005.05 4.16664L1010.28 3.33331L1011.71 4.16664L1016.47 3.33331L1021.23 2.91664L1024.56 2.0833L1029.32 1.66664L1031.7 1.66664L1041.69 1.66664L1044.07 1.24997L1050.26 3.33331L1055.49 4.16665L1061.68 0.833303L1070.72 0.833304L1075 1.24997L1079.76 1.24997L1083.09 2.08331L1087.85 0.416637L1095.94 0.416638L1101.65 -2.95793e-05L1104.98 1.24997L1108.31 2.08331L1109.74 0.833307L1134.01 0.833309L1163.04 0.833312L1168.27 4.58332L1175.41 2.08332L1181.6 2.08332L1186.36 4.58333L1189.69 4.58333L1193.02 4.58333L1193.97 6.25L1203.01 6.25L1206.82 4.58333L1213.01 5.41666L1213.48 6.25L1217.77 6.25L1219.19 5.41666L1232.99 5.41667L1233.95 6.66667L1238.7 6.66667L1240.61 5.41667L1243.94 5.41667L1249.65 4.58333L1251.55 3.33333L1255.36 3.33333L1260.59 0.83332L1261.07 2.08332L1272.97 1.24999L1274.87 2.08333L1275.82 2.08333L1280.11 0.833322L1285.82 4.16667L1287.24 4.16667L1293.91 3.33333L1301.04 6.25001L1304.85 5.41667L1305.33 4.58334L1310.56 5.41667L1311.04 4.58334L1317.7 4.58334L1321.51 6.25001L1321.98 5.00001L1323.41 5.00001L1324.84 6.66668L1325.79 8.33335L1339.59 8.33335L1343.87 10.8334L1349.58 10.8334L1351.96 10L1359.1 10L1361.96 8.33335L1365.76 5.83335L1369.57 5.00001L1370.52 6.25001L1376.23 6.25001L1377.66 5.00001L1382.42 5.00001L1382.89 5.83335L1390.03 5.83335L1390.51 6.25002L1393.84 5.83335L1396.22 4.16668L1402.41 6.25002L1404.79 5.00001L1408.12 4.16668L1412.4 3.75001L1416.21 6.25002L1420.01 5.00001L1421.92 3.75001L1426.68 3.75001L1429.53 2.08334L1435.24 5.00002Z" fill="#FFFEF7"/>
</svg>
