<svg width="96" height="31" viewBox="0 0 96 31" fill="none" xmlns="http://www.w3.org/2000/svg">
<path d="M56.3772 6.14179C57.4612 10.6765 57.4399 15.557 57.3967 20.1869C57.3632 23.7643 57.9798 25.888 54.3423 27.0385C52.378 27.6598 50.4032 28.2841 51.0477 25.4264C51.9192 21.5614 54.2778 15.1055 57.5965 12.5649C58.1545 12.1377 59.1826 12.0055 59.8478 11.7951C62.0173 11.1089 63.118 9.16993 64.2605 7.31235C64.8096 6.4195 65.9567 4.02204 63.8004 5.58258C61.9161 6.94627 61.13 9.42914 61.8347 11.6571C63.1224 15.7284 68.8135 11.0945 66.9454 8.28069C66.6821 7.88404 67.2267 13.6941 67.3397 14.3877C68.0181 18.5544 69.4326 23.1795 68.56 27.4173C68.2933 28.7127 66.7391 31.5747 65.3832 29.6627C62.4588 25.539 67.1464 18.8358 69.2033 15.3274C70.9381 12.3683 73.1245 9.21066 74.0419 5.863C74.2452 5.12126 73.7895 2.80271 73.81 3.57061C73.8341 4.47647 73.497 13.4882 72.2184 11.2867C70.706 8.68258 74.0932 -3.09972 76.2926 3.07387C76.8912 4.75419 76.4268 5.51258 74.6854 6.06336C72.6066 6.72088 74.3764 6.24875 75.6395 6.51171C76.3292 6.6553 82.1087 7.64811 82.1344 8.61189C82.175 10.1385 69.6436 11.9894 68.2327 12.2588C67.6311 12.3737 61.1267 13.1357 64.1928 13.3347C68.5491 13.6174 72.3075 14.8125 76.7824 14.3438C82.0335 13.7938 87.4115 13.4043 92.5886 12.316C103.071 10.1122 71.8348 17.6746 61.3373 19.806C48.1377 22.4861 34.8616 24.5144 21.4869 26.0635C14.8643 26.8305 7.84541 26.8444 1.3075 28.2051C0.676375 28.3365 7.53981 28.6522 8.50346 28.6699C21.0147 28.8997 33.5305 28.5363 46.0362 28.1078" stroke="#162113" stroke-width="0.86059" stroke-linecap="round"/>
</svg>
