<svg width="72" height="41" viewBox="0 0 72 41" fill="none" xmlns="http://www.w3.org/2000/svg">
<path d="M41.4576 5.78891C37.2715 7.60921 34.1239 11.9043 31.2171 15.3058C29.0867 17.7988 27.1205 20.6087 27.845 24.0227C29.0647 29.7695 31.5602 30.4686 36.8816 28.7855C40.7068 27.5756 41.2847 24.2701 41.7136 20.7165C41.8956 19.2084 40.5952 14.689 40.6081 14.7298C41.6642 18.0687 42.6073 21.3937 44.4296 24.4125C46.1094 27.1954 42.2355 22.5044 41.8946 22.1192C40.1289 20.1237 37.2512 17.2199 36.4124 14.5678C36.2502 14.0552 40.8399 12.6509 41.4098 12.3739C41.6494 12.2575 44.7677 10.9723 44.4429 11.4438C43.4327 12.9102 41.7558 14.5184 40.4691 15.7666C38.4797 17.6962 40.9355 18.9468 43.0211 18.6677C48.6171 17.9189 64.6836 12.3518 59.3878 14.3086C54.6606 16.0553 50.1 20.8803 46.5777 24.3755C45.3276 25.6159 44.1794 27.5849 46.6509 25.3451C51.3099 21.1228 55.6243 16.1865 59.8527 11.5336C62.6009 8.50942 64.4031 4.91217 66.8331 1.67544C67.5837 0.675728 64.6772 2.71712 64.5097 2.81913C43.7987 15.4357 23.2676 28.2058 1.67435 39.279C-1.07389 40.6884 4.22308 40.0312 4.67482 39.9068C21.8133 35.1874 37.5366 26.2533 53.2894 18.2815C58.8234 15.4809 64.3581 13.0996 70.311 11.3792C70.5593 11.3074 71.7902 11.4369 71.152 11.6388" stroke="#162113" stroke-width="0.86059" stroke-linecap="round"/>
</svg>
