<svg width="48" height="29" viewBox="0 0 48 29" fill="none" xmlns="http://www.w3.org/2000/svg">
<path d="M19.9361 10.4397C20.4922 8.19646 21.5837 6.16869 22.7913 4.20623C23.3847 3.24198 24.1565 1.44962 25.065 0.731355C25.2291 0.601584 25.9658 3.06856 25.9985 3.17172C26.8173 5.76068 27.6086 8.34969 28.6343 10.8667C29.2526 12.3839 32.8399 17.5498 30.3235 18.3783C29.1221 18.7738 23.2469 20.7795 22.5292 18.5103C22.2356 17.5822 26.3904 14.0972 27.0452 13.4411C28.3831 12.1007 29.8346 10.8171 30.8053 9.17425C31.461 8.0645 31.4139 6.87313 32.1902 5.69889C33.1268 4.28196 32.2599 5.33961 33.5357 6.05779C34.0253 6.33342 37.4835 7.21602 37.4026 7.81168C37.3513 8.18899 36.7367 8.40752 36.4939 8.64219C36.1257 8.99802 38.4406 8.03355 38.5994 7.9561C41.1806 6.69777 42.8319 4.40985 43.7134 1.71218C44.4581 -0.566969 38.7118 4.77909 38.4228 5.035C35.6382 7.50062 32.8157 9.91659 29.9858 12.33C29.3567 12.8665 27.317 14.0221 27.0819 14.8979C26.7327 16.199 43.617 14.8224 45.3002 14.6469C45.3964 14.6369 48.3273 14.132 47.0431 14.5382C40.1828 16.7081 33.3225 18.878 26.4622 21.0479C19.5745 23.2264 12.6925 25.4068 5.72689 27.3248C4.7573 27.5917 1.63844 28.7909 0.899633 28.4091" stroke="#162113" stroke-width="0.86059" stroke-linecap="round"/>
</svg>
