<svg width="61" height="45" viewBox="0 0 61 45" fill="none" xmlns="http://www.w3.org/2000/svg">
<path d="M2.71116 23.6751C4.39021 30.0683 9.72702 49.1609 7.73359 42.8585C6.66936 39.4939 5.60514 36.1292 4.54091 32.7646C3.74905 30.261 2.9572 27.7575 2.16535 25.254C1.80987 24.1302 0.730446 22.1434 0.818634 20.9045C0.839186 20.6157 5.44288 19.918 5.98392 19.886C8.4589 19.7392 9.20595 21.4262 10.6382 23.2186C12.0256 24.9548 10.995 25.5409 9.33547 26.4432C8.79429 26.7375 5.43181 29.2356 7.52949 27.8934C11.2992 25.4814 12.0475 21.7994 10.7606 17.7306C10.0119 15.3637 12.2195 22.5253 13.4764 24.6647C14.064 25.6648 16.8123 28.6023 15.9243 25.7948C14.8528 22.4071 11.5125 20.1079 10.4489 16.7451C10.2078 15.9829 10.447 16.6522 10.8414 16.8847C12.4321 17.8224 14.6808 17.2242 16.3111 16.7367C17.4066 16.4091 18.7281 16.1523 19.64 15.4201C19.8438 15.2565 20.2486 14.6822 20.2791 14.7785C21.1433 17.5106 21.7945 20.4544 23.1893 22.9696C23.6126 23.7329 25.6753 28.03 25.8523 25.7894C25.9927 24.0123 26.1643 22.184 26.2099 20.4028C26.2506 18.8157 25.5787 16.4247 26.3407 14.9414C26.7242 14.1947 29.4941 20.7941 30.4088 21.6529C32.9209 24.0114 32.7124 19.74 32.6668 18.4191C32.5988 16.4509 31.8295 11.6578 34.9191 11.4956C35.8405 11.4472 36.3224 12.0993 37.0621 12.4877C37.8654 12.9096 39.3935 12.0823 40.1024 11.8191C42.7582 10.833 47.2822 8.60008 48.6954 5.84909C49.1774 4.91087 46.3631 6.49684 47.2954 6.37979C51.6109 5.83801 56.365 3.14535 59.9065 0.720996C60.4646 0.338907 59.4629 1.18603 59.3106 1.40751C57.0275 4.72916 55.8408 8.75221 54.1938 12.4012C51.1942 19.0471 46.9151 24.1108 42.3299 29.6013C42.198 29.7592 41.4636 30.4027 41.7953 30.2977C44.6715 29.388 47.1903 27.9139 49.6807 26.2215C52.0439 24.6157 54.5081 23.1189 56.8216 21.4433C58.7954 20.0137 56.9948 20.7324 55.8444 21.1078C44.2874 24.8792 33.1779 30.6839 22.3466 36.1856C21.5212 36.6049 18.6004 37.7655 18.4499 38.7365" stroke="#162113" stroke-width="0.86059" stroke-linecap="round"/>
</svg>
