<svg width="82" height="32" viewBox="0 0 82 32" fill="none" xmlns="http://www.w3.org/2000/svg">
<path d="M0.904145 14.746C2.36814 19.5237 2.75596 24.552 3.5289 29.4441C3.81217 31.2371 3.26477 31.1873 3.60527 29.3281C3.93773 27.5129 4.49357 23.394 5.91367 22.0357C6.98521 21.0108 3.20078 22.8718 3.86507 23.48C4.74091 24.282 13.7914 28.9733 14.3104 28.4036C15.3111 27.3054 13.9796 21.4397 13.8758 19.8833C13.8226 19.0867 13.0871 15.469 13.7828 18.146C14.4676 20.7811 16.5307 28.6692 15.6101 26.1069C14.6727 23.4978 12.4 19.1533 13.7805 16.9074C14.2898 16.0788 17.4935 14.5556 18.2153 15.6977C18.7624 16.5635 16.1124 19.74 15.5624 20.6349C14.1258 22.9721 22.9013 19.3372 23.6843 21.9665C24.0551 23.2115 20.4947 24.8339 19.7896 25.2545C18.0915 26.2676 12.6317 28.5936 14.4926 27.925C16.752 27.1132 30.778 23.9682 29.4146 20.1733C28.5319 17.7167 18.8375 27.4263 28.0564 24.1142C29.263 23.6806 31.7226 22.5475 29.9879 21.0298C27.0498 18.4592 28.8299 20.7771 30.8715 22.0108C35.8908 25.0438 29.8991 10.2049 34.3729 19.1887C34.8387 20.124 34.7978 15.1738 35.0794 14.4196C35.4351 13.467 36.2223 12.2088 37.251 11.8391C37.8362 11.6289 38.8158 15.2888 38.9921 15.6994C39.7486 17.462 41.0013 19.521 42.7823 20.417C44.0946 21.0772 43.6786 19.7131 44.0648 18.8938C45.6597 15.5102 49.4005 13.7895 52.7215 12.5963C54.3508 12.011 49.4501 13.7344 47.8432 14.3786C45.8243 15.1879 42.0415 16.667 46.5807 15.6289C53.0464 14.1504 59.2074 11.8597 65.4349 9.62225C65.9271 9.44541 66.9123 9.34501 66.7035 8.63527C66.2292 7.0235 68.3979 5.27285 69.3216 4.0942C69.5336 3.82366 71.8973 0.306532 71.2617 0.62305C70.0762 1.2134 69.7997 5.04651 69.5273 6.14515C68.7614 9.23365 68.0423 12.3304 67.0525 15.3566C66.36 17.4736 65.2874 12.9811 64.5722 11.8209C63.831 10.6185 59.2777 1.91852 56.9475 2.75572C56.2769 2.99668 58.1459 5.34396 58.1949 5.40627C59.8249 7.47776 61.8196 8.78946 64.2861 9.71036C68.5306 11.2951 72.7784 11.5219 77.238 11.3429C78.3616 11.2978 83.2611 10.9022 79.5519 11.8691C69.4807 14.4944 59.1278 16.1907 48.8945 18.0439C44.9632 18.7559 40.7112 19.0363 36.9309 20.3945" stroke="#162113" stroke-width="0.86059" stroke-linecap="round"/>
</svg>
