<svg width="1004" height="1029" viewBox="0 0 1004 1029" fill="none" xmlns="http://www.w3.org/2000/svg">
<g clip-path="url(#clip0_514_3896)">
<g clip-path="url(#clip1_514_3896)">
<path d="M33.6527 298.254C36.8278 299.056 39.9076 300.671 42.4538 303.195C43.4519 304.187 44.3776 307.801 43.1105 309.074C42.4818 309.705 27.2479 325.614 25.5388 327.336C24.7234 328.151 24.3666 328.877 24.7363 329.961C24.9195 330.687 25.1943 330.952 25.6426 331.404C32.273 337.985 41.7787 338.213 49.44 330.493C52.5045 327.407 54.476 322.51 55.3671 318.703C55.5408 317.8 57.3509 317.787 57.9007 318.327C60.1719 320.576 60.5446 323.48 60.5542 324.56C60.8569 332.976 57.1796 340.324 52.2194 345.325C40.7768 356.864 25.5623 356.2 14.1145 344.846C5.936 336.733 4.89736 325.79 6.58122 318.268C7.4658 314.101 10.0692 308.753 14.0373 304.75C19.5377 299.21 27.034 296.733 33.6525 298.244L33.6527 298.254ZM18.3576 322.925C18.7243 323.289 19.5423 324.274 20.1742 323.822C21.1628 323.184 22.6982 321.816 25.4977 319.005C28.3853 316.092 30.8147 313.278 27.7286 310.213C26.089 308.593 21.4677 305.806 17.4111 309.89C14.3465 312.976 15.1897 319.762 18.3674 322.915L18.3576 322.925Z" fill="#FFFEF7"/>
<path d="M79.4894 258.506C82.5794 259.581 85.5139 261.458 87.824 264.196C88.7336 265.27 89.3404 268.95 87.9713 270.115C87.2918 270.697 70.7323 285.21 68.8805 286.784C68.0039 287.53 67.5763 288.217 67.8566 289.333C67.98 290.07 68.2254 290.366 68.6342 290.849C74.6745 297.98 84.1253 299.039 92.4291 292.007C95.7487 289.197 98.1336 284.483 99.3565 280.77C99.6105 279.885 101.413 280.032 101.914 280.613C103.979 283.056 104.102 285.975 104.011 287.056C103.584 295.466 99.2799 302.465 93.9115 307.013C81.51 317.52 66.4117 315.543 55.9867 303.23C48.5461 294.444 48.4566 283.443 50.7938 276.1C52.0401 272.027 55.098 266.92 59.3927 263.282C65.3521 258.233 73.0406 256.423 79.4992 258.496L79.4894 258.506ZM62.1184 281.765C62.4456 282.159 63.1749 283.216 63.8477 282.814C64.8879 282.265 66.5359 281.035 69.5698 278.47C72.6924 275.823 75.3657 273.224 72.555 269.904C71.0628 268.141 66.6945 264.97 62.3013 268.69C58.9817 271.501 59.2357 278.337 62.1282 281.755L62.1184 281.765Z" fill="#FFFEF7"/>
<path d="M90.9326 242.586C92.5331 240.396 98.181 234.163 99.5658 231.657C100.399 230.152 102.242 228.098 102.459 227.954C102.775 227.738 104.976 227.769 105.562 228.618C105.921 229.142 107.325 232.067 108.044 233.124C108.557 233.865 109.009 233.396 109.181 232.963C110.957 228.32 113.872 221.956 120.402 217.447C126.516 213.235 133.332 215.682 134.116 215.918C137.469 217.177 142.858 220.93 147.871 228.201C151.21 233.051 153.829 236.844 157.313 241.442C160.499 245.615 161.113 245.823 164.685 245.379C166.95 245.057 168.907 245.422 169.564 246.37C170.941 248.376 168.736 250.356 167.373 251.301C166 252.246 160.203 255.782 157.042 257.959C153.99 260.065 149.988 263.288 148.723 264.161C146.195 265.907 144.381 265.75 143.58 264.594C143.149 263.962 142.762 262.509 144.02 260.716C145.793 258.093 145.443 256.469 143.734 253.76C140.278 248.522 137.443 244.412 134.249 239.78C128.795 231.877 127.047 230.909 125.045 230.265C123.043 229.621 120.399 230.519 118.502 231.824C116.289 233.354 114.582 235.156 113.433 236.877C113.189 237.201 113.068 238.834 113.941 240.098C114.671 241.155 127.962 260.437 129.637 262.857C131.085 264.961 132.527 266.145 135.506 265.501C138.692 264.703 139.953 265.86 140.24 266.275C141.401 267.965 140.09 270.109 138.193 271.423C134.716 273.817 131.231 275.76 128.702 277.496C125.432 279.746 119.119 284.571 117.429 285.732C115.009 287.406 113.34 287.467 112.611 286.41C111.666 285.037 112.201 283.117 112.97 281.962C116.543 276.547 116.426 276.159 114.276 272.357C111.794 267.851 106.521 259.986 100.563 251.342C99.4022 249.653 98.474 249.21 93.8829 248.643C91.998 248.387 90.9611 248.016 90.6733 247.591C90.1598 246.85 89.6949 244.378 90.9526 242.585L90.9326 242.586Z" fill="#FFFEF7"/>
<path d="M209.037 167.322C209.156 167.27 209.502 165.953 209.336 165.606C208.993 164.912 204.948 156.925 203.645 154.568C201.558 150.885 200.821 149.968 196.007 150.896C194.691 151.11 192.338 150.982 192.005 150.288C191.611 149.485 191.805 146.391 193.311 145.094C197.06 141.695 208.008 133.765 211.567 132.02C212.489 131.574 214.524 133.997 216.445 137.903C219.987 145.15 226.064 158.712 230.613 168.021C241.924 191.13 241.762 189.922 243.512 193.201C246.051 198.086 248.508 198.451 249.539 197.943C250.689 197.382 253.222 195.855 254.139 195.119C254.543 194.781 255.964 195.936 256.411 196.858C257.314 198.702 256.488 201.667 255.333 202.518C248.999 206.754 239.368 215.04 237.761 215.819C237.067 216.162 235.528 216.2 235.181 215.796C234.392 214.76 233.493 212.636 232.642 211.481C232.528 211.253 231.558 211.301 231.382 211.524C228.77 216.372 223.857 221.762 220.06 223.621C208.451 229.303 194.059 224.373 187.536 211.039C181.46 198.617 185.431 189.264 189.265 182.833C192.576 177.362 199.376 171.758 203.401 169.785C206.623 168.206 207.597 167.878 209.027 167.312L209.037 167.322ZM200.044 182.128C198.515 186.576 199.742 191.395 203.222 198.523C206.878 205.998 215.909 214.255 225.228 209.695C226.031 209.301 227.889 206.967 228.003 206.625C228.298 205.769 228.135 203.992 227.741 203.189C224.194 195.662 221.104 189.627 217.437 182.152C216.482 180.199 214.718 178.351 214.153 178.061C210.051 175.795 205.75 176.333 203.797 177.289C202.875 177.736 200.623 180.407 200.034 182.128L200.044 182.128Z" fill="#FFFEF7"/>
<path d="M247.934 154.684C251.121 152.246 257.21 147.745 259.229 145.478C260.516 144.164 261.452 143.397 262.654 142.945C262.892 142.851 264.886 144.155 265.117 144.751C265.867 146.378 266.78 148.771 267.582 150.527C267.719 150.885 268.707 151.337 268.791 150.475C270.808 145.328 273.593 140.026 278.261 138.261C282.215 136.759 288.137 137.942 289.083 140.456C290.039 142.969 288.772 148.653 286.762 152.02C285.903 153.715 284.855 154.935 284.021 155.25C283.663 155.386 282.324 155.481 280.817 155.098C279.829 154.656 275.568 153.523 274.128 154.069C273.531 154.29 271.947 155.169 271.674 155.544C271.257 156.251 270.882 157.078 271.207 157.913C271.659 159.115 278.329 176.707 280.044 180.846C281.981 185.592 283.515 186.374 288.481 186.134C290.381 186.1 293.398 186.465 293.944 187.895C294.627 189.693 292.072 191.62 290.631 192.166C286.916 193.574 278.917 195.919 275.441 197.242C271.249 198.829 268.634 200.236 265.286 201.507C263.131 202.326 260.422 202.396 259.833 200.836C259.287 199.396 259.883 198.085 261.987 196.046C265.104 193.079 265.335 192.585 262.716 184.961C260.293 178.214 257.793 171.628 255.398 165.291C255.083 164.456 254.077 163.604 251.145 162.387C248.878 161.468 247.02 160.532 246.705 159.687C246.022 157.889 247.214 155.247 247.965 154.694L247.934 154.684Z" fill="#FFFEF7"/>
<path d="M342.726 162.776C343.149 162.388 343.876 161.665 343.13 157.488C342.449 153.56 338.519 139.239 337.062 133.934C336.762 132.819 335.254 130.716 334.281 130.584C333.037 130.397 330.117 130.399 328.873 130.212C327.5 130.057 326.302 129.058 326.131 128.441C325.863 127.456 327.136 124.843 329.972 124.071C336.143 122.379 342.216 120.308 348.635 118.552C349.252 118.38 350.893 119.521 351.3 121.004C352.757 126.308 359.513 151.4 361.25 156.759C362.494 160.797 364.018 161.04 364.635 160.868C365.501 160.633 369.714 159.076 370.915 158.614C371.62 158.291 372.644 159.603 372.75 159.971C373.8 163.803 372.498 165.347 370.96 166.035C367.982 167.249 360.674 169.652 358.616 170.879C355.398 172.688 353.838 173.786 351.499 174.429C350.633 174.665 348.592 173.502 348.153 171.899C347.917 171.033 347.261 169.625 346.693 168.055C346.596 167.687 345.559 167.305 345.375 167.619C341.649 172.887 336.28 178.476 328.876 180.51C324.925 181.592 319.659 180.787 316.442 178.745C314.865 177.854 312.365 174.559 311.722 172.21C310.941 169.374 310.085 165.759 304.12 144.033C303.071 140.212 302.26 140.166 298.735 139.41C297.049 139.081 295.007 137.907 294.601 136.435C294.226 135.081 296.264 133.324 298.245 132.778C300.962 132.029 315.923 127.526 316.778 127.291C317.276 127.152 318.387 128.312 318.998 130.531C320.658 136.582 324.817 154.15 326.813 159.974C328.347 164.597 329.965 166.138 331.283 166.574C332.753 167.098 334.462 167.027 336.811 166.384C339.279 165.709 341.566 163.887 342.716 162.766L342.726 162.776Z" fill="#FFFEF7"/>
<path d="M410.589 107.106C415.644 106.275 423.174 103.988 425.707 103.572C428.868 103.054 430.309 104.758 430.477 105.766C430.747 107.411 428.49 108.692 427.193 109.426C422.894 111.694 420.766 112.953 417.857 115.766C415.269 118.143 411.641 122.11 409.382 124.951C409.048 125.267 409.313 126.133 409.652 126.597C416.502 134.284 424.567 143.849 427.257 146.001C430.12 148.379 432.137 150.383 436.152 151.15C439.222 151.684 440.425 151.873 440.673 153.388C440.965 155.153 439.131 156.627 436.1 157.132C432.311 157.761 423.245 158.605 416.923 159.65C415.028 159.965 413.133 160.279 411.239 160.593C408.586 161.032 407.451 159.662 407.283 158.655C407.181 158.027 407.704 156.507 409.43 155.185C410.67 154.073 410.026 153.274 409.326 152.217C407.391 149.161 404.894 146.596 401.782 142.692C399.348 139.726 397.581 137.677 396.823 137.801C396.444 137.858 396.087 138.055 395.753 138.371C395.419 138.687 395.306 139.609 395.35 139.868C396.125 144.545 396.519 146.938 397.21 150.326C398.295 156.117 399.183 155.971 402.004 156.54C403.599 156.801 405.39 157.409 405.558 158.416C405.806 159.932 403.847 162.198 401.573 162.579C399.299 162.95 393.808 163.47 390.647 163.997C387.366 164.537 379.974 166.151 377.571 166.545C375.676 166.859 373.676 165.756 373.473 164.499C373.26 163.233 374.002 162.209 376.808 160.318C379.949 158.111 379.803 157.233 379.632 153.886C379.403 151.719 379.057 146.455 374.462 118.674C372.497 106.797 371.203 100.53 370.826 99.0363C370.173 96.6777 369.759 96.4852 365.149 93.7483C364.018 93.1588 363.126 92.5248 362.968 91.5175C362.8 90.5104 364.064 87.9671 365.166 87.527C367.672 86.2013 376.683 83.4175 380.497 81.358C382.517 80.2411 383.704 79.5295 384.581 79.3835C385.469 79.2374 386.434 81.1502 386.637 82.4168C386.887 86.2729 389.512 105.298 390.693 112.498C391.592 117.933 392.575 123.086 393.194 126.875C393.772 131.185 394.908 132.555 395.665 132.431C396.294 132.33 397.414 131.229 398.739 129.845C401.938 126.467 404.389 123.202 407.234 118.449C409.047 115.296 409.043 114.516 405.474 114.07C402.827 113.728 401.579 113.291 401.399 112.154C401.05 110.01 403.619 108.283 404.875 108.08L410.559 107.147L410.589 107.106Z" fill="#FFFEF7"/>
<path d="M483.599 100.421C488.714 100.118 496.448 98.6379 498.996 98.4916C502.193 98.3036 503.457 100.151 503.515 101.17C503.616 102.829 501.234 103.872 499.865 104.467C495.357 106.269 493.105 107.3 489.92 109.798C487.097 111.89 483.071 115.463 480.538 118.05C480.173 118.326 480.349 119.213 480.638 119.708C486.641 128.071 493.67 138.435 496.114 140.851C498.703 143.514 500.503 145.722 504.425 146.901C507.421 147.747 508.597 148.066 508.685 149.604C508.787 151.393 506.81 152.659 503.743 152.844C499.906 153.074 490.803 152.969 484.409 153.345C482.49 153.46 480.572 153.575 478.664 153.679C475.976 153.838 474.999 152.356 474.931 151.337C474.889 150.697 475.573 149.245 477.433 148.111C478.785 147.136 478.219 146.266 477.639 145.147C476.04 141.905 473.818 139.085 471.132 134.883C469.023 131.671 467.483 129.458 466.713 129.502C466.334 129.529 465.956 129.676 465.581 129.953C465.216 130.23 465.013 131.143 465.027 131.393C465.303 136.119 465.447 138.547 465.78 141.991C466.256 147.864 467.145 147.807 469.891 148.668C471.459 149.089 473.164 149.889 473.233 150.908C473.32 152.446 471.137 154.496 468.839 154.628C466.541 154.76 461.019 154.7 457.832 154.897C454.505 155.098 446.999 155.924 444.561 156.068C442.643 156.183 440.769 154.887 440.696 153.608C440.623 152.329 441.466 151.384 444.448 149.799C447.794 147.938 447.748 147.039 447.938 143.695C447.938 141.515 448.143 136.25 446.482 108.136C445.774 96.1265 445.139 89.747 444.921 88.2207C444.527 85.8074 444.123 85.5747 439.834 82.362C438.771 81.6511 437.958 80.9358 437.889 79.9068C437.831 78.8877 439.357 76.4897 440.491 76.159C443.123 75.1111 452.371 73.2731 456.382 71.6301C458.506 70.7314 459.756 70.1487 460.655 70.0923C461.554 70.036 462.31 72.0426 462.384 73.3215C462.223 77.1751 462.842 96.377 463.274 103.66C463.594 109.155 464.039 114.388 464.258 118.215C464.387 122.563 465.374 124.046 466.133 124.002C466.773 123.96 467.995 122.998 469.463 121.751C472.999 118.726 475.775 115.736 479.105 111.304C481.242 108.355 481.318 107.584 477.813 106.767C475.211 106.154 474.02 105.576 473.96 104.427C473.83 102.259 476.564 100.809 477.843 100.736L483.588 100.401L483.599 100.421Z" fill="#FFFEF7"/>
<path d="M556.47 109.211C558.042 112.083 558.953 115.437 558.838 119.019C558.794 120.43 556.77 123.558 554.979 123.5C554.078 123.466 532.068 123.126 529.637 123.05C528.486 123.011 527.71 123.245 527.168 124.245C526.759 124.872 526.746 125.252 526.728 125.893C526.417 135.23 532.717 142.357 543.585 142.71C547.939 142.851 552.865 140.971 556.261 139.029C557.042 138.545 558.286 139.863 558.26 140.633C558.158 143.836 556.289 146.08 555.492 146.815C549.529 152.764 541.639 155.067 534.604 154.835C518.361 154.299 508.5 142.706 509.027 126.584C509.409 115.075 516.721 106.861 523.382 102.98C527.042 100.793 532.732 99.0596 538.356 99.2476C546.162 99.5061 553.083 103.321 556.47 109.191L556.47 109.211ZM527.987 114.798C527.966 115.309 527.799 116.582 528.562 116.738C529.707 117.037 531.751 117.23 535.714 117.359C539.807 117.494 543.526 117.357 543.667 113.014C543.745 110.712 542.639 105.421 536.885 105.235C532.531 105.094 528.136 110.325 527.987 114.798Z" fill="#FFFEF7"/>
<path d="M574.765 106.018C578.713 105.317 586.192 104.111 589.023 103.019C590.763 102.448 591.949 102.196 593.222 102.343C593.472 102.369 594.66 104.437 594.581 105.079C594.504 106.871 594.21 109.416 594.125 111.338C594.082 111.719 594.757 112.567 595.224 111.848C599.379 108.202 604.287 104.773 609.239 105.343C613.438 105.827 618.157 109.592 617.855 112.258C617.544 114.934 613.814 119.392 610.481 121.463C608.941 122.571 607.452 123.178 606.56 123.075C606.179 123.032 604.949 122.504 603.78 121.465C603.105 120.617 599.83 117.666 598.307 117.483C597.676 117.415 595.866 117.458 595.45 117.675C594.758 118.108 594.048 118.671 593.944 119.563C593.797 120.836 591.656 139.528 591.267 143.995C590.809 149.095 591.805 150.497 596.343 152.565C598.048 153.404 600.56 155.109 600.387 156.632C600.172 158.536 597.011 159.084 595.488 158.901C591.549 158.453 583.349 156.861 579.66 156.438C575.21 155.929 572.241 155.972 568.683 155.567C566.398 155.308 563.956 154.122 564.146 152.469C564.318 150.945 565.452 150.045 568.257 149.204C572.386 147.999 572.81 147.661 573.985 139.678C574.927 132.57 575.73 125.574 576.508 118.839C576.612 117.947 576.11 116.726 574.065 114.303C572.471 112.441 571.251 110.763 571.354 109.871C571.57 107.967 573.838 106.165 574.765 106.008L574.765 106.018Z" fill="#FFFEF7"/>
<path d="M655.792 118.332C658.816 117.977 668.202 117.666 672.996 116.209C674.03 115.83 674.56 115.851 675.053 115.982C676.41 116.357 677.14 118.024 677.074 118.276C676.492 120.377 676.389 120.738 675.807 122.839C675.497 123.945 676.12 124.124 676.837 123.921C679.499 122.932 686.798 120.58 693.704 122.505C701.223 124.599 704.316 129.713 705.387 133.065C705.535 133.502 706.324 133.988 707.013 133.915C711.556 132.393 713.661 131.514 716.592 131.001C719.523 130.488 722.444 130.505 725.399 131.331C736.989 134.552 739.68 144.474 737.4 155.528C735.668 163.68 732.689 175.346 731.824 178.423C731.242 180.513 732.4 182.573 734.294 183.889C735.723 184.953 737.421 186.482 736.98 188.091C736.567 189.568 733.757 190.119 731.786 189.565C729.193 188.842 723.468 186.985 720.633 186.197C717.799 185.408 712.305 184.147 709.47 183.359C706.384 182.505 705.757 180.466 706.029 179.481C706.17 178.988 707.438 177.745 710.09 177.287C713.021 176.773 713.917 175.957 714.912 172.378C716.555 166.458 718.8 157.915 719.964 153.724C721.307 148.918 721.594 145.943 720.288 143.976C719.148 142.327 717.608 140.704 713.909 139.681C712.552 139.306 708.766 139.044 707.575 139.516C706.979 139.747 706.28 140.35 705.942 141.586C704.158 147.999 699.76 165.242 699.213 168.152C698.545 171.025 698.865 173.239 700.628 174.528C702.857 176.078 703.849 177.28 703.473 178.637C703.022 180.235 700.715 180.927 698.734 180.373C695.527 179.481 689.059 177.418 685.852 176.526C683.138 175.775 679.373 174.993 676.659 174.232C673.945 173.481 672.388 171.449 672.763 170.092C673.139 168.735 675.391 168.294 677.53 168.226C680.479 168.112 680.637 168.029 682.373 162.267L688.696 141.439C689.747 138.139 689.137 136.51 688.665 135.318C687.556 132.618 684.835 130.937 681.387 129.969C679.658 129.491 677.622 129.187 675.835 129.89C675.239 130.121 673.933 131.485 673.689 132.349C667.652 154.052 667.173 155.781 666.522 159.054C665.806 162.577 665.73 163.349 667.725 165.233C669.719 167.117 670.749 168.199 670.308 169.807C669.96 171.043 668.107 171.987 666.137 171.433C663.181 170.606 656.741 168.423 653.041 167.39C650.206 166.601 644.396 165.516 641.561 164.727C638.726 163.939 637.493 162.131 637.841 160.904C638.151 159.798 639.846 158.937 642.553 158.758C646.349 158.489 647.654 157.126 648.873 153.213C650.392 148.715 652.775 140.61 655.93 129.271C656.344 127.793 656.623 127.738 655.066 125.706C653.026 123.013 652.434 121.783 652.575 121.29C653.092 119.441 654.666 118.552 655.792 118.332Z" fill="#FFFEF7"/>
<path d="M799.399 169.786C799.858 173.028 799.52 176.494 798.15 179.8C797.614 181.1 794.613 183.315 792.951 182.635C792.124 182.29 771.644 174.2 769.397 173.26C768.329 172.82 767.527 172.764 766.661 173.51C766.059 173.951 765.915 174.314 765.666 174.898C762.082 183.525 765.453 192.415 775.501 196.593C779.522 198.261 784.802 198.235 788.652 197.625C789.559 197.449 790.249 199.116 789.952 199.832C788.725 202.785 786.181 204.231 785.178 204.639C777.5 208.099 769.307 207.467 762.807 204.765C747.801 198.526 742.661 184.197 748.852 169.302C753.269 158.66 763.018 153.563 770.616 152.285C774.813 151.528 780.752 151.921 785.952 154.077C793.157 157.077 798.287 163.085 799.388 169.776L799.399 169.786ZM770.767 164.964C770.565 165.438 769.965 166.569 770.623 166.987C771.586 167.67 773.432 168.566 777.091 170.09C780.87 171.662 784.402 172.848 786.069 168.827C786.951 166.701 787.784 161.365 782.463 159.151C778.442 157.484 772.482 160.822 770.767 164.964Z" fill="#FFFEF7"/>
<path d="M848.36 184.859C848.703 185.033 849.666 186.246 849.55 187.048C849.314 188.363 847.86 190.929 847.57 191.495C847.281 192.06 845.257 194.057 843.318 193.062C839.098 190.908 834.821 188.875 832.196 187.543C831.964 187.427 830.756 188.109 830.466 188.674L820.77 207.153C818.389 211.547 818.323 213.379 818.874 215.669C819.6 218.196 820.789 219.235 822.616 220.162C823.989 220.857 825.864 221.673 827.759 221.919C828.962 222.097 829.881 221.991 830.557 222.338C831.011 222.57 831.578 224.01 831.114 224.919C830.187 226.746 828.969 227.998 823.296 228.981C819.17 229.756 812.427 228.038 809.581 226.589C805.129 224.32 800.068 220.451 799.258 213.855C799.045 212.018 799.691 209.046 801.787 204.947C805.853 196.962 809.156 191.611 814.739 180.658C815.086 179.972 815.27 179.058 812.649 176.866C811.054 175.484 811.082 172.613 811.546 171.705C812.009 170.796 813.677 170.636 815.165 170.529C819.287 170.044 826.516 168.843 830.927 167.213C832.874 166.487 837.567 167.152 838.597 167.673C839.283 168.021 839.729 169.973 839.197 170.993C838.56 172.245 836.29 176.697 835.943 177.383C835.711 177.837 835.755 179.157 836.552 179.563C837.804 180.2 845.736 183.527 848.36 184.859Z" fill="#FFFEF7"/>
<path d="M924.341 238.221C926.039 245.271 923.807 253.983 920.056 259.472C915.506 266.135 904.51 274.746 889.46 271.589C885.525 270.76 878.217 267.632 874.935 265.391C874.298 264.963 872.718 263.881 872.125 263.162C872.023 263.093 870.452 263.572 870.159 263.987C866.915 268.747 865.103 271.39 863.873 273.643C863.039 275.088 861.991 276.848 865.736 282.041C867.592 284.547 867.565 286.388 867.137 287.026C866.338 288.191 864.304 289.128 861.458 287.179C860.608 286.604 857.438 284.431 852.05 280.759C845.184 276.062 840.936 274.559 836.288 271.383C833.219 269.288 833.068 267.021 833.721 266.069C834.082 265.542 835.834 264.57 839.052 265.522C844.433 267.175 845.827 266.269 848.81 262.574C851.657 259.092 865.251 239.862 869.733 233.31C872.617 229.087 875.432 224.955 878.293 220.553C878.653 220.026 879.208 218.076 877.527 213.055C876.87 211.057 876.882 210.597 877.243 210.07C877.895 209.118 880.288 208.115 881.633 208.41C884.896 209.081 893.643 211.033 896.301 211.455C898.286 211.729 900.057 212.317 900.472 212.599C900.898 212.892 902.328 215.106 901.821 215.845C901.247 216.696 899.335 218.801 898.466 220.527C898.285 221.02 899.09 221.886 899.652 221.956C900.785 222.115 905.968 222.241 908.065 222.583C911.003 223.04 913.547 224.314 915.552 225.688C920.312 228.932 923.173 233.371 924.361 238.21L924.341 238.221ZM897.127 227.232C896.846 227.197 895.24 227.957 894.879 228.483C892.28 231.831 887.492 238.619 884.53 242.953C879.259 250.67 879.21 252.341 879.231 252.981C879.367 256.639 881.127 261.558 883.234 263C883.872 263.439 886.629 264.389 889.515 263.566C893.535 262.443 899.135 257.421 902.019 253.198C906.997 245.906 910.18 234.437 901.622 228.591C900.569 227.87 898.798 227.282 897.127 227.222L897.127 227.232Z" fill="#FFFEF7"/>
<path d="M943.043 252.554C949.465 254.798 960.207 259.233 961.892 260.603C962.39 261.004 961.734 263.436 960.198 265.325C957.214 268.999 952.45 274.867 946.56 282.115C936.086 295.217 936.432 294.991 935.8 295.972C934.568 298.105 934.571 299.925 936.233 302.755C937.222 304.378 937.902 306.586 936.856 307.875C936.132 308.768 934.233 308.873 931.746 306.857C929.665 305.165 924.439 300.429 922.256 298.648C917.19 294.529 912.097 291.061 910.706 289.926C909.112 288.635 907.331 286.367 908.466 284.976C909.513 283.687 912.291 284.127 913.148 284.491C918.814 286.449 919.228 286.131 922.618 282.779C924.514 280.854 931.108 273.344 935.707 267.679C937.321 265.69 939.156 263.226 939.544 262.549C939.789 262.254 940.398 261.093 939.525 257.088C939.327 256.112 939.108 253.945 939.676 253.255C940.243 252.564 942.579 252.322 943.063 252.543L943.043 252.554ZM975.827 241.417C976.077 244.753 974.416 248.024 973.614 249.019C968.772 254.977 962.069 252.669 959.49 250.575C957.206 248.716 955.586 245.425 955.976 242.117C956.065 240.376 956.637 238.865 958.007 237.18C961.715 232.612 967.821 231.791 972.886 235.91C974.876 237.524 975.621 239.451 975.827 241.427L975.827 241.417Z" fill="#FFFEF7"/>
<path d="M1002.69 298.74C1002.98 298.995 1003.57 300.424 1003.25 301.16C1002.66 302.361 1000.57 304.439 1000.13 304.907C999.701 305.375 997.216 306.75 995.619 305.269C992.14 302.062 988.573 298.946 986.406 296.945C986.213 296.768 984.868 297.093 984.437 297.571L970.11 312.733C966.634 316.316 966.066 318.057 965.978 320.419C965.996 323.049 966.86 324.364 968.366 325.757C969.495 326.796 971.088 328.088 972.842 328.836C973.951 329.336 974.864 329.479 975.424 329.999C975.8 330.343 975.958 331.88 975.261 332.633C973.879 334.138 972.364 335.016 966.643 334.429C962.465 334.055 956.431 330.584 954.081 328.416C950.41 325.032 946.586 319.931 947.588 313.371C947.875 311.546 949.306 308.86 952.435 305.472C958.507 298.881 963.13 294.616 971.468 285.584C971.988 285.024 972.412 284.186 970.481 281.371C969.319 279.602 970.119 276.857 970.806 276.104C971.502 275.351 973.148 275.652 974.603 275.955C978.706 276.601 985.981 277.399 990.675 277.024C992.753 276.846 997.088 278.758 997.932 279.543C998.492 280.063 998.398 282.065 997.613 282.909C996.662 283.947 993.278 287.609 992.758 288.178C992.415 288.554 992.098 289.83 992.759 290.438C993.797 291.39 1000.53 296.738 1002.7 298.729L1002.69 298.74Z" fill="#FFFEF7"/>
<path d="M244.85 74.3447C246.321 78.2087 245.882 83.2575 243.502 86.5712C242.497 87.9396 240.564 89.4649 238.846 90.1162C235.111 91.5442 231.176 89.1052 229.884 85.708C228.246 81.407 229.029 76.632 230.974 73.5763C231.645 72.4839 234.026 70.3504 235.655 69.7207C239.827 68.1348 243.37 70.4709 244.85 74.3347L244.85 74.3447ZM235.058 74.8724C234.268 79.2575 235.181 83.8317 236.063 86.156C236.62 87.6162 238.084 87.8497 238.561 87.671C239.207 87.4292 239.329 86.9869 239.67 85.9206C240.521 83.2347 240.208 76.9994 238.832 73.3937C238.486 72.4898 237.417 71.4691 236.593 71.7841C236.076 71.9835 235.486 72.5043 235.068 74.8722L235.058 74.8724Z" fill="#FFFEF7"/>
<path d="M266.466 62.331C266.793 63.2852 266.896 63.9835 266.981 65.3622C267.127 67.8899 267.048 70.7418 266.963 73.7439C266.95 74.1342 267.374 74.3765 267.553 74.3133C267.991 74.1653 269.282 72.5516 269.932 71.4897C270.117 71.1763 270.821 71.3735 271 71.9004C271.169 72.3774 271.059 73.4896 270.722 74.1858C269.665 76.5953 267.183 79.8409 264.142 80.8962C263.098 81.2552 262.104 80.4831 261.889 80.167C261.58 79.6925 261.371 79.2262 261.516 77.8133C261.749 75.2487 261.984 67.2331 261.712 65.4778C261.678 65.2483 261.385 64.5235 260.729 64.7455C259.774 65.0728 258.929 67.5586 258.29 70.3606C257.3 74.7993 256.573 80.4534 256.288 81.8588C256.03 83.0737 255.704 83.8197 255.356 83.9361C253.746 84.4954 251.987 83.4971 251.671 82.5827C251.491 82.0658 251.29 80.9093 251.377 79.6175C251.582 76.5733 251.601 71.5521 251.595 70.142C251.629 69.2512 250.975 69.0431 250.886 69.0747C250.15 69.3281 249.476 70.2005 248.554 71.1973C247.808 71.991 247.37 71.5589 247.201 71.0818C247.138 70.913 247.046 70.2145 247.069 69.864C247.301 67.7395 249.216 64.6843 252.307 63.618C253.698 63.1327 254.798 64.2129 255.072 64.9981C255.421 66.0019 255.314 68.3743 255.288 69.695C255.261 69.8955 255.551 69.8902 255.646 69.6184C256.447 67.4436 257.974 64.5254 259.115 62.9144C260.032 61.6276 260.994 60.61 262.643 60.03C263.945 59.5763 265.833 60.5322 266.455 62.3112L266.466 62.331Z" fill="#FFFEF7"/>
<path d="M279.772 50.4281C279.889 50.776 279.922 53.1758 279.941 54.7657C279.968 55.1453 280.2 55.2611 280.458 55.1764L284.127 53.9597C284.306 53.9064 284.634 54.3306 284.687 54.5096C284.783 54.8179 284.828 56.7774 284.42 56.8649C283.076 57.1993 281.792 57.5526 280.448 57.8871C280.229 57.961 280.045 58.3044 280.037 58.4046C280.064 61.5346 279.917 65.0079 280.004 68.1668C280.034 69.7965 280.574 69.8167 280.703 69.7744C281.23 69.6048 282.678 67.7983 283.727 66.069C283.863 65.8864 284.571 66.2837 284.709 66.7212C284.931 67.4273 284.73 68.4511 284.441 69.0765C283.567 71.0427 280.139 75.6056 277.772 76.3586C276.41 76.7934 275.144 75.3561 274.921 74.6601C274.879 74.5308 274.7 73.5239 274.679 72.3741C274.676 70.5438 274.758 64.5814 274.721 60.3413C274.718 60.1514 274.552 59.8143 274.383 59.8674C273.985 59.9946 273.038 60.1918 272.063 60.4596C271.784 60.4946 271.472 60.4103 271.345 60.0125C271.122 59.3064 271.471 58.1399 271.6 58.0976C272.087 57.9487 273.996 57.284 274.383 57.1169C274.422 57.1062 274.725 56.6707 274.722 56.5207C274.842 55.9984 275.341 53.1389 275.547 51.815C275.646 51.2031 276.715 50.6236 276.974 50.5389C278.157 50.1673 279.686 50.1096 279.782 50.4179L279.772 50.4281Z" fill="#FFFEF7"/>
<path d="M292.336 52.7603C293.853 50.8825 295.295 49.8961 296.708 49.4904C297.066 49.3839 298.905 49.2906 299.618 49.4677C299.718 49.4858 300.127 49.4184 300.113 49.1786C300.117 45.538 299.914 43.1613 299.773 42.0036C299.681 41.3552 299.316 41.0818 297.614 41.0026C297.034 40.9831 296.401 40.2945 296.358 40.1152C296.283 39.8466 296.535 39.3919 297.277 38.9884C299.168 37.9139 303.489 36.2853 303.838 36.1889C304.057 36.125 305.045 36.5571 305.178 37.8649C305.413 40.3311 305.439 45.5915 305.589 50.5795C305.663 54.6689 305.685 58.069 306.01 62.1838C306.013 62.3738 306.016 62.5638 306.198 62.6605C306.381 62.7972 306.782 62.8699 307.091 62.7843C307.757 62.5922 308.703 61.2248 309.275 60.2443C309.401 60.012 309.843 59.5539 310.151 59.4683C310.947 59.2438 310.972 61.1437 310.946 61.3942C310.602 63.3607 308.788 67.0442 304.42 68.3037C303.674 68.5172 302.492 68.4286 301.937 68.1587C301.776 68.1116 301.079 67.1641 300.983 66.8558C300.834 66.3284 301.073 65.1539 300.995 63.0749C300.991 62.885 300.648 62.7012 300.533 62.9733C300.424 63.5754 298.165 68.0571 296.444 69.7085C295.658 70.4629 294.342 71.2269 293.685 71.4089C292.491 71.7506 291.388 71.5906 290.475 70.897C289.674 70.2714 288.934 69.1847 288.518 67.772C287.258 63.3941 288.913 57.033 292.337 52.7903L292.336 52.7603ZM295.723 66.3411C296.43 66.1382 297.413 65.2302 298.364 63.0426C299.178 61.0375 300.193 57.4385 300.172 53.5283C300.169 53.3883 299.994 52.5713 299.78 52.3452C299.402 51.882 298.7 51.2646 298.302 51.3818C296.671 51.8515 295.016 56.5923 294.547 58.3011C294.164 59.7983 293.744 63.6565 294.342 65.726C294.47 66.1638 295.136 66.5017 295.713 66.3412L295.723 66.3411Z" fill="#FFFEF7"/>
<path d="M323.902 42.8356C325.569 43.2155 326.838 44.2626 327.194 45.6964C327.625 47.3889 326.71 49.3358 325.62 50.4657C323.874 52.3377 321.099 53.7583 318.615 54.6335C318.435 54.6767 318.263 55.0999 318.246 55.2503C318.256 55.8202 318.354 56.7886 318.72 58.2122C318.774 58.4312 319.003 58.9471 319.519 59.2878C320.451 59.951 321.839 59.8258 322.158 59.7501C322.915 59.5563 324.539 58.0966 325.775 56.2539C326.037 55.809 326.442 55.5117 326.661 55.4577C326.88 55.4037 327.36 55.9451 327.468 56.3932C327.694 57.2792 327.192 58.2685 326.726 59.0571C325.698 60.796 323.869 63.0696 319.896 64.0918C317.139 64.8019 314.522 63.3291 313.187 60.8729C313.094 60.7046 312.832 60.0592 312.724 59.6111C311.626 55.3303 312.938 49.3456 315.939 46.0606C316.792 45.125 318.893 43.4966 321.292 42.883C322.088 42.6785 323.099 42.7002 323.892 42.8358L323.902 42.8356ZM318.327 52.0083C318.359 52.1377 318.585 52.4636 318.725 52.4311C320.464 51.7995 322.973 48.4434 322.306 45.8651C322.113 45.1085 321.439 44.9007 321.22 44.9546C319.746 45.3314 318.564 49.0535 318.327 52.0083Z" fill="#FFFEF7"/>
<path d="M348.733 39.8557C349.146 41.6985 348.629 42.9481 347.566 44.4576C346.611 45.8552 343.732 48.1178 343.22 48.5571C343.102 48.6793 342.998 49.0312 343.171 49.1781C343.922 49.7646 344.889 50.7172 345.917 51.7087C346.345 52.131 346.902 52.521 347.53 52.3796C348.068 52.2598 348.82 51.8061 349.996 49.9345C350.346 49.388 350.612 49.1332 350.93 49.0574C351.289 48.9709 351.808 50.0316 351.652 50.7846C350.7 55.1025 348.678 57.2196 346.526 57.7087C344.734 58.1212 343.681 57.4602 341.632 55.287C340.826 54.4315 340.301 53.6109 339.679 52.9421C338.996 52.2443 338.249 51.8478 337.801 51.956C337.621 51.9992 337.496 52.2615 337.325 52.7747C336.812 54.2543 336.468 57.311 336.028 59.5294C335.992 59.7701 335.29 60.2129 334.971 60.2887C333.846 60.5391 331.727 59.5174 331.53 58.6208C331.433 58.2125 331.479 57.9716 331.478 57.3615C331.533 56.5504 332.286 40.194 332.251 33.8336C332.248 32.5635 331.811 32.7114 330.078 32.5828C329.357 32.5159 328.972 32.2728 328.929 32.0936C328.82 31.5955 329.357 30.8656 329.801 30.5275C330.413 30.1064 335.403 28.4056 337.106 28.0146C337.335 27.9605 338.055 28.4575 338.058 29.7277C338.056 30.7678 337.594 37.2373 337.292 43.7738C337.296 43.9638 337.58 44.2287 337.726 44.006C339.042 42.1018 341.061 39.8048 341.72 39.1828C342.428 38.5498 343.721 37.5962 344.438 37.4332C345.833 37.1179 348.212 37.6148 348.723 39.8559L348.733 39.8557ZM338.106 48.9299C338.109 49.1199 338.319 49.6362 338.717 49.5489C340.918 49.0489 344.06 45.2613 343.539 42.9804C343.408 42.4027 343.07 41.9588 342.213 42.1443C341.138 42.3939 338.963 43.8235 338.096 48.9301L338.106 48.9299Z" fill="#FFFEF7"/>
<path d="M368.639 34.5335C370.338 32.8224 371.873 31.9844 373.319 31.7182C373.677 31.6517 375.519 31.7383 376.214 31.9857C376.314 32.0139 376.724 31.9865 376.73 31.7563C377.104 28.1389 377.141 25.7479 377.11 24.5783C377.088 23.9285 376.752 23.6146 375.067 23.3551C374.486 23.2756 373.942 22.5354 373.909 22.3459C373.864 22.0767 374.156 21.6513 374.94 21.3171C376.935 20.4408 381.394 19.2597 381.753 19.1932C381.982 19.149 382.922 19.682 382.916 20.9924C382.901 23.4731 382.395 28.7031 382.036 33.6804C381.7 37.7572 381.381 41.1435 381.286 45.2759C381.269 45.4663 381.263 45.6564 381.425 45.7635C381.598 45.9204 381.99 46.0333 382.309 45.9775C382.987 45.8552 384.064 44.5854 384.737 43.6631C384.883 43.4504 385.376 43.0314 385.685 42.9758C386.502 42.8309 386.327 44.7244 386.281 44.9753C385.736 46.8955 383.569 50.3754 379.083 51.1869C378.315 51.3308 377.151 51.1119 376.625 50.7914C376.474 50.7241 375.865 49.715 375.81 49.3959C375.71 48.8576 376.069 47.7109 376.201 45.6282C376.218 45.4379 375.894 45.2137 375.749 45.4764C375.579 46.0696 372.886 50.2991 370.992 51.7637C370.134 52.4294 368.745 53.0547 368.067 53.177C366.841 53.3992 365.766 53.1287 364.921 52.3439C364.188 51.6371 363.557 50.4883 363.291 49.0429C362.48 44.5569 364.778 38.3942 368.609 34.5241L368.639 34.5335ZM370.631 48.3897C371.358 48.2565 372.424 47.457 373.596 45.3754C374.602 43.4668 375.989 39.9911 376.358 36.0838C376.376 35.9434 376.271 35.1152 376.086 34.8685C375.767 34.3642 375.125 33.6858 374.716 33.7632C373.041 34.0636 370.913 38.6129 370.283 40.2646C369.749 41.7146 368.938 45.5099 369.327 47.6332C369.405 48.0819 370.042 48.4904 370.63 48.3797L370.631 48.3897Z" fill="#FFFEF7"/>
<path d="M401.053 27.8548C402.673 28.4055 403.824 29.5748 404.041 31.0311C404.302 32.7567 403.185 34.6072 401.994 35.619C400.064 37.3043 397.164 38.4471 394.605 39.0636C394.425 39.0869 394.203 39.491 394.185 39.6413C394.135 40.2023 394.143 41.1823 394.36 42.6386C394.394 42.868 394.563 43.3951 395.041 43.7865C395.904 44.5409 397.295 44.5657 397.614 44.5099C398.382 44.396 400.149 43.1037 401.558 41.3979C401.871 40.9821 402.296 40.7244 402.526 40.6902C402.755 40.656 403.166 41.2487 403.234 41.6975C403.37 42.6052 402.767 43.5363 402.23 44.2661C401.03 45.8882 398.977 47.9658 394.927 48.5793C392.105 49.0006 389.663 47.2846 388.576 44.7039C388.503 44.5252 388.311 43.8585 388.243 43.4097C387.583 39.0409 389.498 33.2153 392.815 30.2546C393.76 29.4173 396.015 28.0062 398.468 27.6316C399.286 27.5068 400.279 27.6388 401.062 27.8446L401.053 27.8548ZM394.577 36.4137C394.599 36.5533 394.785 36.89 394.925 36.8774C396.717 36.4248 399.552 33.3429 399.154 30.6997C399.04 29.9217 398.395 29.6533 398.165 29.6875C396.659 29.9148 395.114 33.4934 394.577 36.4137Z" fill="#FFFEF7"/>
<path d="M436.397 42.0553C434.679 43.2966 433.427 43.7594 432.519 43.8559C430.961 44.0242 429.204 43.0959 428.94 40.6703C428.892 40.2111 428.868 39.9815 428.919 39.5205C428.961 39.0496 428.498 39.4281 428.448 39.479C427.353 41.3992 424.131 44.6482 421.296 44.9496C420.108 45.0712 417.642 43.6257 417.879 40.1708C417.938 39.0095 418.909 34.0911 419.736 30.5856C419.878 30.1529 419.69 29.7063 419.321 29.753C418.312 29.8613 417.311 30.8896 416.642 31.5118C416.14 31.981 415.556 31.7216 415.495 31.1226C415.446 30.6234 415.589 30.2307 415.887 29.6052C416.689 28.0404 419.96 24.7805 423.205 24.4416C423.704 24.3926 424.722 24.8342 424.988 25.1294C425.722 25.9262 425.995 27.2015 425.54 29.1001C425.094 30.9984 424.305 34.9234 423.722 38.5946C423.549 39.5379 424.12 40.1676 424.719 40.1067C425.727 39.9984 427.512 38.0558 428.475 35.4079C428.799 34.5418 429.051 32.987 429.106 32.1459C429.162 31.3947 429.229 30.6534 429.324 29.8515C429.708 27.3142 431.646 25.5387 433.114 25.3821C434.481 25.2373 435.571 26.3277 435.704 27.6055C435.778 28.3343 435.718 29.4555 435.473 30.2701C435.068 31.6577 434.604 32.5862 434.226 33.7733C433.837 34.9205 433.493 36.9071 433.566 37.6359C433.663 38.5943 434.514 39.159 435.202 39.0865C435.841 39.0149 437.261 38.449 438.446 36.4772C439.669 34.4547 440.361 31.7917 440.107 29.3659C439.962 27.9883 439.048 27.2148 438.657 26.6018C438.493 26.3847 438.307 25.5279 438.461 25.1851C438.94 24.0262 440.964 22.5592 442.062 22.4493C442.791 22.3761 443.79 23.4281 444.02 25.6643C444.638 31.5641 440.059 39.4084 436.406 42.0551L436.397 42.0553Z" fill="#FFFEF7"/>
<path d="M461.4 21.6788C462.973 22.3504 464.026 23.6115 464.132 25.0798C464.254 26.8279 462.996 28.571 461.732 29.4941C459.679 31.0215 456.696 31.9358 454.103 32.3529C453.923 32.3662 453.67 32.7508 453.632 32.8915C453.533 33.4534 453.47 34.4247 453.567 35.8932C453.581 36.123 453.711 36.6707 454.159 37.0927C454.954 37.9084 456.346 38.0431 456.666 38.0173C457.445 37.9632 459.294 36.8095 460.846 35.2311C461.189 34.8348 461.635 34.6167 461.865 34.6025C462.095 34.5883 462.466 35.2017 462.494 35.6613C462.561 36.5802 461.887 37.4626 461.289 38.1435C459.966 39.6678 457.751 41.5783 453.675 41.8722C450.828 42.0739 448.523 40.1654 447.645 37.5109C447.582 37.332 447.439 36.6444 447.411 36.1949C447.091 31.79 449.449 26.1363 452.991 23.4316C453.997 22.6632 456.355 21.4402 458.832 21.2553C459.661 21.2002 460.645 21.4024 461.4 21.6688L461.4 21.6788ZM454.275 29.7093C454.277 29.8493 454.454 30.2062 454.584 30.1938C456.408 29.8807 459.477 27.0246 459.279 24.3677C459.225 23.5886 458.599 23.2599 458.369 23.284C456.851 23.3916 455.033 26.8451 454.265 29.7095L454.275 29.7093Z" fill="#FFFEF7"/>
<path d="M475.67 23.1507C475.701 23.7503 474.929 26.9648 474.611 28.1708C474.536 28.4922 474.96 28.6645 475.123 28.2815C475.286 27.9085 477.563 23.3364 479.105 21.7382C480.203 20.5381 481.325 20.0677 482.294 20.0201C483.623 19.956 485.153 21.0384 485.204 22.1877C485.286 23.9365 483.406 26.1809 482.338 26.8304C482.209 26.9327 481.469 26.9162 481.367 26.828C480.941 26.4757 480.256 25.638 479.706 25.6579C479.386 25.6637 478.5 26.4499 478.238 26.8748C476.579 29.7153 474.052 35.9522 472.993 38.7719C472.458 40.1818 471.798 40.7138 471.198 40.7447C469.549 40.8246 468.444 39.9945 468.251 39.818C468.006 39.5524 467.918 38.5439 468.078 38.0309C468.238 37.4679 470.518 29.1652 471.215 26.232C471.325 25.67 470.813 25.5592 470.583 25.5734C470.033 25.6034 469.4 25.9949 468.602 26.6295C467.931 27.1717 467.577 27.5082 467.258 27.524C466.798 27.5424 466.676 26.8645 466.658 26.4447C466.573 24.5159 469.193 20.6178 473.38 20.4218C475.169 20.3394 475.606 21.8417 475.669 23.1207L475.67 23.1507Z" fill="#FFFEF7"/>
<path d="M500.101 20.1972C501.635 20.9495 502.629 22.2617 502.666 23.7313C502.697 25.481 501.358 27.1656 500.043 28.0196C497.909 29.4485 494.892 30.2034 492.277 30.4908C492.097 30.4941 491.823 30.8691 491.786 31.0098C491.666 31.5621 491.544 32.5345 491.58 34.004C491.584 34.234 491.694 34.7821 492.113 35.2346C492.868 36.091 494.252 36.296 494.572 36.2802C495.352 36.266 497.263 35.2112 498.886 33.7015C499.249 33.3248 499.706 33.1265 499.936 33.1224C500.166 33.1182 500.497 33.7523 500.515 34.212C500.532 35.1319 499.817 35.975 499.189 36.6365C497.795 38.092 495.488 39.8941 491.399 39.9883C488.549 40.05 486.342 38.0297 485.593 35.3328C485.54 35.1538 485.438 34.4655 485.429 34.0056C485.329 29.5867 487.969 24.0579 491.644 21.5308C492.681 20.8219 495.102 19.7078 497.581 19.6529C498.411 19.6378 499.386 19.8902 500.121 20.1969L500.101 20.1972ZM492.589 27.8647C492.592 28.0047 492.738 28.3721 492.878 28.3596C494.714 28.1362 497.916 25.4377 497.857 22.7684C497.843 21.9885 497.237 21.6294 497.007 21.6336C495.487 21.6612 493.488 25.028 492.589 27.8547L492.589 27.8647Z" fill="#FFFEF7"/>
<path d="M509.467 9.39512C510.893 9.20921 514.706 8.74 516.096 8.73479C516.506 8.72735 516.972 9.64903 516.652 10.755C514.915 16.9676 511.212 29.5368 510.3 33.814C510.162 34.5066 510.298 35.3743 510.758 35.376C511.628 35.3802 513.374 34.0383 514.252 33.3423C514.528 33.1572 515.084 33.4772 515.081 33.8473C515.089 34.3072 514.903 35.0407 514.669 35.415C512.881 38.2679 509.617 39.7474 506.907 39.7565C505.667 39.759 504.372 38.4223 504.367 37.0422C504.361 35.0619 505.826 29.8145 506.416 27.6034C508.011 21.8036 509.799 15.04 510.3 12.8706C510.391 12.4088 510.202 11.9022 508.735 11.5387C508.133 11.3996 507.766 11.0362 507.77 10.7161C507.762 10.2562 508.459 9.52342 509.466 9.37512L509.467 9.39512Z" fill="#FFFEF7"/>
<path d="M525.12 21.6233C527.126 20.2867 528.797 19.7763 530.268 19.8096C530.638 19.8229 532.417 20.2707 533.054 20.6592C533.145 20.7076 533.556 20.7601 533.612 20.5391C534.709 17.0686 535.217 14.729 535.426 13.585C535.534 12.943 535.267 12.5677 533.666 11.9767C533.123 11.7765 532.728 10.9435 532.724 10.7636C532.729 10.4834 533.103 10.1266 533.94 9.96139C536.062 9.50283 540.678 9.23907 541.038 9.25253C541.268 9.24836 542.081 9.96373 541.825 11.2486C541.309 13.6784 539.769 18.6971 538.416 23.5024C537.267 27.4339 536.276 30.6724 535.349 34.6999C535.302 34.8808 535.245 35.0618 535.388 35.2093C535.522 35.3969 535.885 35.5903 536.205 35.5945C536.896 35.612 538.207 34.578 539.054 33.8226C539.24 33.6392 539.795 33.329 540.125 33.3431C540.955 33.358 540.409 35.1882 540.313 35.42C539.395 37.1969 536.568 40.1687 532.016 40.0612C531.235 40.0454 530.137 39.6052 529.689 39.1833C529.557 39.0857 529.167 37.9726 529.171 37.6524C529.181 37.1022 529.762 36.0514 530.316 34.0411C530.363 33.8602 530.098 33.575 529.912 33.7984C529.621 34.3437 526.136 37.9475 523.995 38.9965C523.014 39.4844 521.539 39.8112 520.849 39.7937C519.608 39.7662 518.609 39.2843 517.942 38.3462C517.367 37.5065 516.974 36.2534 517.007 34.7826C517.115 30.2299 520.604 24.6557 525.13 21.6231L525.12 21.6233ZM524.293 35.5906C525.034 35.6071 526.243 35.0351 527.801 33.2366C529.171 31.5614 531.225 28.4437 532.367 24.6923C532.414 24.5515 532.479 23.7301 532.344 23.4525C532.124 22.8964 531.64 22.1051 531.23 22.0925C529.529 22.0534 526.541 26.0782 525.578 27.5759C524.762 28.891 523.216 32.4496 523.165 34.6009C523.153 35.0611 523.693 35.5814 524.293 35.5906Z" fill="#FFFEF7"/>
<path d="M562.393 22.4674C562.797 23.2802 562.795 24.8005 562.42 25.6474C561.287 28.2484 559.7 32.7979 558.982 34.6012C558.934 34.6921 558.657 35.4073 559.036 35.9405C559.252 36.2266 559.73 36.678 560.09 36.7015C563.024 36.8883 566.304 31.898 566.484 29.0943C566.561 27.8527 565.792 26.2863 565.469 25.5221C565.312 25.1449 565.195 24.7669 565.234 24.1661C565.281 23.4352 567.519 21.6443 569.171 21.7443C570.222 21.8153 571.133 23.489 570.991 25.5919C570.772 28.9865 567.913 34.0092 564.955 36.9133C562.292 39.502 559.554 41.312 556.159 41.0935C554.097 40.9609 552.667 38.7964 552.809 36.6835C552.872 35.7622 553.286 34.3145 553.611 33.5084C554.719 30.6279 555.796 28.208 556.578 26.0934C556.692 25.7813 556.477 25.5352 556.197 25.5202C555.556 25.4819 554.169 26.2171 552.914 27.06C552.579 27.3162 552.026 26.5861 552.032 26.4059C552.056 26.0354 552.374 25.4095 552.628 25.0649C554.502 22.5105 558.195 21.0033 560.539 21.1508C561.089 21.1908 562.029 21.7038 562.393 22.4674Z" fill="#FFFEF7"/>
<path d="M586.952 24.4126C586.993 24.4619 587.241 24.3473 587.288 24.2065C587.51 23.7624 587.699 23.1288 588.101 22.7015C588.357 22.4468 589.105 22.3232 589.515 22.3558C590.116 22.4049 591.094 22.8072 591.784 23.3748C592.211 23.7371 592.491 24.3121 592.458 24.6728C592.424 25.0434 588.162 35.9925 587.62 38.0727C587.554 38.294 587.587 38.4434 587.678 38.4917C587.85 38.6486 588.031 38.6554 588.171 38.6728C588.582 38.7054 590.118 37.9574 591.796 36.7068C592.191 36.4196 592.856 36.6975 592.807 37.3385C592.758 37.9395 592.496 38.3743 592.126 38.9411C590.86 40.8244 587.689 43.5124 583.652 43.1855C582.6 43.0946 581.292 42.1182 581.366 41.1967C581.423 40.5055 582.253 38.8202 582.884 37.2585C583.048 36.9055 582.499 36.9454 582.243 37.2101C580.624 38.9197 576.13 42.5719 572.874 42.3009C572.323 42.2508 571.082 41.6433 570.695 41.2502C570.186 40.7494 569.971 39.9431 570.019 39.3021C570.151 37.7395 571.662 35.0116 573.502 32.8079C576.321 29.4362 579.953 26.1798 583.076 24.6429C584.275 24.0511 584.753 23.9524 585.344 24.0017C585.625 24.0266 586.578 24.1993 586.922 24.4131L586.952 24.4126ZM580.797 28.5749C578.248 30.9015 577.108 34.1827 576.952 36.0559C576.911 36.5567 577.29 37.61 578.021 37.6667C578.842 37.7319 579.83 37.0338 581.333 35.5363C583.593 33.325 584.144 32.2548 585.433 28.8609C585.556 28.4986 585.498 28.0796 585.284 27.8334C584.906 27.3902 584.264 27.2918 583.993 27.2667C582.661 27.1609 581.889 27.6049 580.797 28.5749Z" fill="#FFFEF7"/>
<path d="M617.059 30.1371C616.937 31.1395 616.71 31.8138 616.183 33.0935C615.195 35.4318 613.87 37.9563 612.478 40.6119C612.295 40.9653 612.572 41.3604 612.753 41.3871C613.204 41.4389 615.078 40.5648 616.136 39.9055C616.433 39.7101 616.982 40.1902 616.912 40.7416C616.851 41.2428 616.268 42.1935 615.656 42.6746C613.637 44.3716 609.979 46.1982 606.792 45.7959C605.699 45.6657 605.138 44.5257 605.091 44.1465C605.021 43.5777 605.042 43.0772 605.79 41.8635C607.13 39.6588 610.872 32.5697 611.412 30.8797C611.488 30.6583 611.534 29.8773 610.852 29.7897C609.85 29.6678 607.993 31.5218 606.193 33.7548C603.347 37.297 600.213 42.0546 599.323 43.201C598.551 44.1751 597.93 44.6965 597.569 44.653C595.875 44.4437 594.745 42.7739 594.857 41.8117C594.927 41.2604 595.247 40.1444 595.897 39.0224C597.429 36.3842 599.648 31.8832 600.275 30.6116C600.691 29.8339 600.202 29.3527 600.112 29.3444C599.33 29.2485 598.349 29.7264 597.087 30.2194C596.064 30.608 595.864 30.0215 595.925 29.5203C595.951 29.3398 596.169 28.6658 596.344 28.3626C597.491 26.5614 600.557 24.6655 603.795 25.0669C605.259 25.2504 605.775 26.7012 605.67 27.5233C605.539 28.5758 604.397 30.6569 603.798 31.8379C603.681 32.0101 603.943 32.1353 604.16 31.9314C605.841 30.3306 608.486 28.3823 610.229 27.4406C611.616 26.6853 612.927 26.2014 614.671 26.4098C616.044 26.575 617.315 28.2622 617.089 30.1366L617.059 30.1371Z" fill="#FFFEF7"/>
<path d="M656.494 26.6714C658.111 28.6724 658.314 31.0391 657.98 33.0355C657.456 36.1155 655.066 38.3692 652.744 39.3815C651.037 40.1126 648.282 40.3926 645.694 39.9595C644.881 39.8242 644.095 39.4984 643.842 39.323C643.507 39.079 643.178 38.5549 643.259 38.1033C643.323 37.7421 644.058 37.4887 644.759 37.516C647.681 37.593 650.78 35.3165 651.385 31.7349C652.054 27.7921 650.32 25.9533 648.454 25.637C648.093 25.5736 647.262 26.0887 646.982 26.6039C645.129 30.3481 640.282 40.4877 638.462 44.8914C637.666 46.8062 638.434 47.2223 640.282 48.189C641.1 48.6042 641.587 49.0154 641.497 49.5672C641.379 50.2494 640.513 50.4252 639.74 50.2991C638.968 50.1631 635.12 49.2328 633.033 48.8805C631.398 48.6002 628.101 48.2299 627.107 48.0579C626.295 47.9226 625.428 47.5383 625.563 46.7257C625.662 46.1338 626.647 45.8359 627.677 45.8272C629.836 45.778 630.798 45.2905 631.638 43.655C632.266 42.4134 638.072 29.446 639.467 26.4202C639.996 25.2504 639.494 24.6094 637.258 23.7598C636.554 23.5025 636.192 22.879 636.237 22.6081C636.328 22.0664 637.15 21.6414 637.822 21.7592C638.996 21.958 642.348 22.5773 643.572 22.7851C645.428 23.1015 649.75 23.7432 651.165 23.9776C653.292 24.3391 655.41 25.3508 656.485 26.7016L656.494 26.6714Z" fill="#FFFEF7"/>
<path d="M666.198 24.6447C667.63 24.7387 671.466 25.0292 672.821 25.2947C673.232 25.3772 673.5 26.3625 672.969 27.3924C670.053 33.1462 663.962 44.7486 662.235 48.7705C661.967 49.4255 661.933 50.3063 662.384 50.3981C663.238 50.5727 665.22 49.5965 666.211 49.0885C666.519 48.9629 666.997 49.3843 666.923 49.7457C666.831 50.1974 666.514 50.8833 666.219 51.1987C663.904 53.6511 660.418 54.4644 657.758 53.9326C656.543 53.6946 655.535 52.1326 655.8 50.7776C656.185 48.8403 658.637 43.975 659.66 41.9261C662.363 36.5462 665.43 30.2596 666.343 28.2427C666.525 27.8093 666.436 27.2808 665.064 26.6356C664.499 26.3858 664.211 25.9509 664.276 25.6397C664.367 25.188 665.187 24.603 666.198 24.6647L666.198 24.6447Z" fill="#FFFEF7"/>
<path d="M686.873 40.6731C686.904 40.7325 687.163 40.6478 687.24 40.5164C687.523 40.1112 687.792 39.5062 688.255 39.1378C688.542 38.9226 689.301 38.8988 689.703 38.9915C690.285 39.121 691.205 39.6544 691.807 40.3135C692.185 40.7268 692.376 41.3334 692.302 41.6948C692.219 42.0564 686.484 52.3221 685.67 54.3072C685.574 54.5189 685.587 54.6687 685.678 54.7271C685.831 54.9043 686.002 54.9413 686.142 54.9687C686.544 55.0614 688.175 54.5318 689.997 53.5186C690.422 53.2808 691.049 53.6595 690.911 54.2921C690.781 54.8746 690.458 55.2705 690.008 55.7887C688.498 57.4764 684.988 59.7104 681.031 58.822C679.997 58.5908 678.846 57.4414 679.039 56.5378C679.187 55.865 680.249 54.3055 681.093 52.8499C681.307 52.516 680.746 52.4862 680.46 52.7114C678.627 54.1849 673.67 57.1753 670.477 56.4631C669.934 56.3429 668.79 55.5635 668.472 55.1192C668.032 54.5471 667.937 53.7287 668.075 53.0961C668.418 51.5696 670.293 49.0652 672.418 47.1363C675.665 44.187 679.716 41.463 683.027 40.3628C684.299 39.9397 684.779 39.911 685.361 40.0404C685.632 40.0955 686.558 40.3988 686.873 40.6631L686.873 40.6731ZM680.211 43.9445C677.366 45.9064 675.782 48.9856 675.375 50.8333C675.264 51.3254 675.494 52.4114 676.207 52.5785C677.011 52.764 678.081 52.1945 679.778 50.9235C682.324 49.037 683.006 48.0644 684.759 44.8721C684.933 44.5289 684.925 44.109 684.76 43.8319C684.451 43.3375 683.827 43.1487 683.556 43.0936C682.251 42.8073 681.427 43.1323 680.211 43.9445Z" fill="#FFFEF7"/>
<path d="M715.91 50.1473C715.657 51.132 715.349 51.7577 714.66 52.9604C713.38 55.154 711.742 57.4841 710.016 59.9358C709.792 60.2599 710.01 60.696 710.191 60.7427C710.633 60.8547 712.602 60.2189 713.733 59.7083C714.06 59.5524 714.53 60.1039 714.4 60.6364C714.268 61.1288 713.574 61.9916 712.901 62.3938C710.687 63.8142 706.82 65.1546 703.705 64.351C702.64 64.0802 702.228 62.8775 702.231 62.4974C702.231 61.9273 702.322 61.4256 703.212 60.3292C704.816 58.3198 709.448 51.7647 710.199 50.1608C710.305 49.9489 710.451 49.1761 709.778 49.0083C708.793 48.7561 706.722 50.3639 704.648 52.3419C701.374 55.4918 697.652 59.8 696.63 60.8187C695.746 61.6849 695.053 62.1275 694.702 62.0339C693.054 61.6137 692.141 59.8099 692.384 58.8754C692.524 58.3427 692.985 57.2742 693.776 56.2397C695.633 53.8156 698.418 49.6444 699.196 48.4701C699.713 47.7506 699.284 47.2083 699.193 47.19C698.44 46.9936 697.396 47.3426 696.081 47.6665C695.016 47.9158 694.895 47.3079 695.016 46.8257C695.063 46.6448 695.371 46.0091 695.576 45.7353C696.947 44.0902 700.23 42.6104 703.386 43.4233C704.812 43.7875 705.14 45.3018 704.934 46.0957C704.673 47.1206 703.277 49.0362 702.517 50.1302C702.38 50.2827 702.623 50.4383 702.86 50.264C704.735 48.8897 707.607 47.3074 709.454 46.5938C710.934 46.0268 712.299 45.712 713.987 46.1415C715.323 46.4873 716.367 48.3187 715.9 50.1475L715.91 50.1473Z" fill="#FFFEF7"/>
<path d="M733.576 47.5766C733.472 47.9285 732.179 49.9523 731.323 51.2881C731.129 51.6216 731.263 51.8492 731.524 51.9245L735.253 52.9371C735.434 52.9838 735.474 53.5231 735.417 53.7042C735.333 54.0158 734.283 55.6751 733.9 55.522C732.601 55.0555 731.324 54.6486 730.025 54.1821C729.804 54.1161 729.467 54.3122 729.399 54.3835C727.696 57.0048 725.647 59.8224 723.975 62.5032C723.1 63.8793 723.536 64.2014 723.676 64.2389C724.209 64.3892 726.417 63.6791 728.241 62.8159C728.46 62.7319 728.823 63.4554 728.701 63.8977C728.504 64.6014 727.757 65.355 727.184 65.7155C725.374 66.8685 719.998 68.7863 717.605 68.0996C716.238 67.7044 715.964 65.809 716.161 65.1053C716.198 64.9746 716.611 64.037 717.224 63.0657C718.236 61.5371 721.598 56.6153 723.904 53.0629C724.001 52.9011 724.054 52.5301 723.883 52.4832C723.481 52.3705 722.584 52.0167 721.618 51.6941C721.366 51.5787 721.152 51.3225 721.264 50.9204C721.462 50.2167 722.408 49.4295 722.538 49.4671C723.021 49.6084 724.98 50.1129 725.392 50.1855C725.432 50.1947 725.919 50.0059 726.006 49.8843C726.4 49.5171 728.382 47.4108 729.294 46.4241C729.706 45.9665 730.928 46.0744 731.189 46.1496C732.386 46.488 733.691 47.2945 733.596 47.6062L733.576 47.5766Z" fill="#FFFEF7"/>
<path d="M745.555 57.8918C745.404 58.3746 744.922 58.8534 744.562 59.41C743.89 60.3624 738.959 67.0229 738.13 68.1681C738.061 68.2394 738.069 68.6793 738.25 68.736C738.824 68.9156 740.368 68.5676 741.47 68.1375C741.907 67.9796 742.357 67.9314 742.527 67.9783C742.698 68.0352 742.876 68.4221 742.79 68.6837C742.441 69.8302 741.57 70.3261 740.898 70.7983C738.765 72.2673 734.709 73.091 732.114 72.2979C731.41 72.0806 730.604 70.635 730.802 69.9713C730.962 69.4483 731.398 68.6603 731.858 68.0818C732.299 67.5938 736.214 62.3419 738.33 59.333C738.915 58.5023 738.639 58.1772 738.549 58.1489C737.975 57.9692 736.056 58.5841 735.032 58.9528C734.814 59.0267 734.458 58.1531 734.524 57.9318C734.722 57.2681 735.163 56.78 735.766 56.389C737.268 55.4016 741.837 54.1586 744.562 54.9893C745.085 55.1498 745.923 56.6549 745.555 57.8918ZM749.113 50.0359C748.839 50.921 747.432 52.2168 746.955 52.3555C746.378 52.5159 745.588 52.5603 745.025 52.3905C743.879 52.0412 742.844 50.7097 743.297 49.2213C743.807 47.5517 745.113 46.7479 745.709 46.5471C746.255 46.3271 746.807 46.4072 747.3 46.5482C749.452 47.2093 749.35 49.2915 749.113 50.0359Z" fill="#FFFEF7"/>
<path d="M768.442 66.3976C768.119 67.3536 767.77 67.97 767.001 69.1142C765.579 71.2103 763.768 73.4135 761.87 75.7483C761.626 76.0528 761.814 76.4995 761.985 76.5664C762.418 76.7085 764.429 76.222 765.592 75.7808C765.929 75.6547 766.36 76.237 766.19 76.7601C766.028 77.2432 765.273 78.057 764.569 78.3998C762.251 79.662 758.31 80.7237 755.261 79.6988C754.215 79.3478 753.892 78.1234 753.925 77.7527C753.965 77.1819 754.086 76.6896 755.058 75.6619C756.804 73.7699 761.882 67.5668 762.744 66.0109C762.86 65.8087 763.067 65.0549 762.413 64.8367C761.457 64.514 759.273 65.9638 757.056 67.8043C753.558 70.7082 749.54 74.7518 748.447 75.6918C747.502 76.489 746.789 76.882 746.436 76.7684C744.826 76.2275 744.043 74.3714 744.346 73.4458C744.516 72.9226 745.058 71.8926 745.92 70.9168C747.939 68.6398 751.018 64.6633 751.878 63.5475C752.445 62.8671 752.055 62.2941 751.964 62.2658C751.22 62.0192 750.165 62.2984 748.818 62.5229C747.741 62.6924 747.65 62.084 747.812 61.601C747.869 61.4299 748.217 60.8135 748.453 60.5492C749.935 59.012 753.313 57.7606 756.412 58.7945C757.811 59.2592 758.028 60.7855 757.763 61.5705C757.431 62.5767 755.894 64.3948 755.072 65.4199C754.925 65.5626 755.158 65.7384 755.405 65.5839C757.373 64.348 760.359 62.9736 762.248 62.3893C763.76 61.9218 765.146 61.7066 766.807 62.2666C768.115 62.7029 769.03 64.6066 768.432 66.3978L768.442 66.3976Z" fill="#FFFEF7"/>
</g>
</g>
<defs>
<clipPath id="clip0_514_3896">
<rect width="1004" height="1029" fill="white"/>
</clipPath>
<clipPath id="clip1_514_3896">
<rect width="997.73" height="354.14" fill="white" transform="translate(0 0.0957031) rotate(-1.03919)"/>
</clipPath>
</defs>
</svg>
