<svg width="1069" height="397" viewBox="0 0 1069 397" fill="none" xmlns="http://www.w3.org/2000/svg">
<g clip-path="url(#clip0_514_3413)">
<path d="M453.386 220.137C455.107 221.276 456.218 223.517 456.553 225.441C457.202 229.23 455.338 233.984 450.607 236.2C448.773 237.064 447.499 237.437 445.405 237.795C443.541 238.119 441.234 238.301 440.606 238.402C440.017 238.503 438.146 238.977 437.348 239.111C436.79 239.212 436.087 239.054 435.989 238.616C435.932 238.257 436.374 237.819 437.101 237.636C438.992 237.131 439.198 236.877 439.444 234.463C439.614 232.819 440.294 225.066 440.31 223.755C440.349 222.044 440.225 221.856 438.496 221.878C438.166 221.884 437.394 221.828 437.35 221.558C437.252 221.15 437.624 220.693 438.252 220.582C438.75 220.493 439.379 220.421 439.817 220.313C441.491 219.963 444.749 219.254 446.225 218.997C449.954 218.359 452.051 219.271 453.386 220.137ZM445.321 221.034C445.178 221.426 444.972 222.19 444.772 224.384C444.572 226.608 443.912 233.751 443.87 234.212C443.825 234.463 443.858 235.193 444.154 235.507C444.704 236.047 445.618 236.261 445.976 236.194C447.013 236.016 448.38 235.291 449.126 234.497C450.519 233.011 451.041 231.982 451.458 230.714C451.799 229.678 452.003 227.154 451.802 225.997C451.668 225.229 451.269 223.596 450.682 222.657C449.795 221.193 447.767 220.209 446.291 220.456C446.112 220.489 445.426 220.752 445.321 221.014L445.321 221.034Z" fill="#FFFEF7"/>
<path d="M470.851 225.781C471.22 228.455 470.207 231.594 468.208 233.36C467.371 234.086 465.924 234.772 464.736 234.934C462.152 235.291 460.004 233.169 459.681 230.825C459.267 227.852 460.464 224.929 462.144 223.269C462.724 222.668 464.556 221.665 465.683 221.504C468.566 221.102 470.483 223.107 470.851 225.781ZM464.551 224.695C463.409 227.366 463.314 230.409 463.543 232.015C463.682 233.022 464.588 233.386 464.907 233.34C465.356 233.282 465.502 233.019 465.86 232.393C466.792 230.806 467.509 226.802 467.154 224.308C467.063 223.68 466.528 222.879 465.969 222.959C465.61 223.006 465.165 223.254 464.551 224.705L464.551 224.695Z" fill="#FFFEF7"/>
<path d="M482.146 219.865C483.183 220.257 483.918 221.053 484.025 222.002C484.156 223.129 483.387 224.314 482.588 224.948C481.287 226.002 479.379 226.677 477.695 227.027C477.575 227.039 477.42 227.302 477.412 227.392C477.359 227.763 477.35 228.394 477.447 229.352C477.46 229.502 477.566 229.85 477.871 230.114C478.411 230.625 479.322 230.668 479.531 230.644C480.04 230.585 481.216 229.784 482.176 228.706C482.382 228.442 482.669 228.287 482.819 228.264C482.968 228.242 483.225 228.637 483.261 228.937C483.332 229.535 482.912 230.123 482.551 230.59C481.739 231.625 480.343 232.93 477.698 233.238C475.852 233.452 474.3 232.27 473.649 230.571C473.607 230.452 473.499 230.014 473.463 229.714C473.131 226.85 474.504 223.104 476.74 221.244C477.371 220.722 478.875 219.845 480.482 219.665C481.021 219.606 481.663 219.714 482.166 219.865L482.146 219.865ZM477.734 225.306C477.736 225.396 477.86 225.624 477.95 225.612C479.125 225.351 481.04 223.406 480.849 221.679C480.79 221.17 480.376 220.978 480.226 221C479.238 221.118 478.15 223.418 477.734 225.306Z" fill="#FFFEF7"/>
<path d="M505.559 220.351C505.843 223.906 504.425 226.763 504.029 227.55C503.507 228.56 502.523 229.448 501.447 230.227C500.766 230.73 499.575 231.251 499.306 231.276C498.437 231.342 497.636 230.746 497.608 230.327C497.57 229.877 498.104 228.968 498.468 228.661C498.527 228.6 498.756 228.546 498.847 228.574C499.098 228.65 499.989 229.263 500.349 229.237C500.649 229.212 500.677 229.151 500.851 228.778C501.359 227.598 502.01 223.746 501.842 221.659C501.752 220.58 501.318 220.348 500.899 220.386C500.359 220.425 499.905 220.734 499.143 221.728C497.677 223.655 496.514 226.786 495.347 230.278C495.11 231.022 494.717 231.409 494.508 231.433C494.028 231.472 493.044 231.22 492.616 230.807C492.321 230.503 492.299 229.873 492.386 229.141C492.547 228.108 494.507 215.971 494.738 214.326C494.802 214.015 494.596 213.709 494.566 213.679C493.689 213.295 493.044 213.017 492.989 212.758C492.975 212.548 493.266 212.043 493.494 211.938C494.456 211.501 497.777 210.961 498.406 210.909C498.526 210.907 499.031 211.188 498.887 212.041C498.539 214.387 497.549 218.256 497.051 221.636C497.052 221.696 497.167 222.013 497.334 221.82C498.322 220.602 499.007 219.76 500.19 218.818C501.324 217.917 502.139 217.663 503.158 217.584C504.117 217.507 505.406 218.573 505.549 220.371L505.559 220.351Z" fill="#FFFEF7"/>
<path d="M517.182 217.11C518.2 217.561 518.876 218.399 518.933 219.358C518.994 220.497 518.154 221.623 517.325 222.218C515.962 223.193 514.012 223.758 512.316 224.009C512.196 224.011 512.031 224.264 512.002 224.355C511.929 224.716 511.881 225.357 511.938 226.316C511.941 226.466 512.027 226.825 512.312 227.11C512.822 227.651 513.734 227.754 513.944 227.74C514.454 227.711 515.671 226.979 516.702 225.96C516.928 225.706 517.225 225.57 517.375 225.558C517.525 225.555 517.762 225.961 517.778 226.26C517.809 226.86 517.359 227.428 516.967 227.865C516.095 228.851 514.626 230.068 511.959 230.227C510.1 230.33 508.617 229.067 508.066 227.317C508.033 227.197 507.945 226.749 507.93 226.449C507.768 223.572 509.361 219.902 511.7 218.179C512.362 217.687 513.918 216.909 515.526 216.82C516.066 216.79 516.709 216.928 517.192 217.12L517.182 217.11ZM512.455 222.276C512.456 222.366 512.561 222.604 512.651 222.593C513.847 222.401 515.874 220.574 515.773 218.836C515.744 218.326 515.34 218.113 515.19 218.116C514.201 218.174 512.971 220.407 512.445 222.267L512.455 222.276Z" fill="#FFFEF7"/>
<path d="M527.903 213.755C527.907 213.995 527.515 215.512 527.253 216.507C527.197 216.748 527.329 216.866 527.509 216.852L530.027 216.727C530.147 216.725 530.283 217.042 530.285 217.162C530.289 217.372 529.982 218.618 529.711 218.593C528.81 218.569 527.94 218.565 527.04 218.541C526.89 218.544 526.713 218.737 526.684 218.798C526.16 220.768 525.459 222.921 524.965 224.92C524.704 225.945 525.036 226.059 525.126 226.057C525.486 226.051 526.71 225.158 527.673 224.251C527.792 224.159 528.168 224.532 528.174 224.832C528.183 225.312 527.884 225.927 527.6 226.262C526.709 227.349 523.76 229.613 522.141 229.672C521.211 229.709 520.661 228.589 520.642 228.109C520.64 228.019 520.708 227.357 520.885 226.624C521.204 225.468 522.297 221.738 523.009 219.074C523.036 218.954 523.002 218.714 522.872 218.717C522.602 218.722 521.972 218.693 521.311 218.685C521.131 218.658 520.949 218.552 520.934 218.282C520.925 217.802 521.343 217.124 521.433 217.123C521.763 217.117 523.082 217.033 523.351 216.988C523.381 216.987 523.637 216.763 523.665 216.672C523.83 216.369 524.639 214.654 525.004 213.857C525.168 213.494 525.945 213.31 526.125 213.307C526.934 213.272 527.899 213.515 527.912 213.725L527.903 213.755Z" fill="#FFFEF7"/>
<path d="M540.157 209.442C541.084 209.315 543.569 208.99 544.469 208.973C544.739 208.968 545.04 209.563 544.843 210.287C543.746 214.347 541.395 222.561 540.825 225.362C540.744 225.814 540.844 226.382 541.134 226.377C541.704 226.366 542.838 225.486 543.4 225.035C543.578 224.912 543.942 225.115 543.946 225.355C543.951 225.655 543.83 226.138 543.684 226.38C542.528 228.252 540.416 229.23 538.646 229.252C537.836 229.267 536.99 228.402 536.974 227.502C536.95 226.212 537.888 222.785 538.262 221.338C539.274 217.549 540.404 213.128 540.718 211.712C540.772 211.411 540.646 211.083 539.692 210.85C539.301 210.767 539.056 210.532 539.052 210.312C539.047 210.012 539.498 209.523 540.156 209.432L540.157 209.442Z" fill="#FFFEF7"/>
<path d="M552.418 217.68C552.424 218.01 552.201 218.404 552.078 218.817C551.831 219.531 550.013 224.625 549.709 225.491C549.68 225.551 549.765 225.82 549.885 225.818C550.275 225.811 551.176 225.314 551.778 224.833C552.014 224.659 552.292 224.534 552.412 224.532C552.532 224.529 552.706 224.746 552.709 224.926C552.704 225.707 552.252 226.185 551.92 226.601C550.863 227.92 548.486 229.194 546.716 229.186C546.236 229.184 545.462 228.428 545.464 227.978C545.457 227.618 545.587 227.046 545.769 226.602C545.952 226.209 547.409 222.202 548.168 219.928C548.377 219.304 548.144 219.148 548.084 219.149C547.694 219.156 546.607 219.896 546.034 220.307C545.916 220.399 545.527 219.916 545.525 219.766C545.526 219.316 545.709 218.922 546.013 218.567C546.767 217.673 549.388 216.035 551.248 216.041C551.608 216.035 552.412 216.83 552.408 217.671L552.418 217.68ZM553.167 212.106C553.168 212.706 552.527 213.788 552.26 213.963C551.924 214.169 551.447 214.347 551.057 214.345C550.277 214.339 549.375 213.705 549.387 212.685C549.396 211.544 550.053 210.802 550.388 210.556C550.694 210.32 551.053 210.264 551.383 210.258C552.853 210.261 553.177 211.586 553.177 212.096L553.167 212.106Z" fill="#FFFEF7"/>
<path d="M564.957 216.963C565.161 217.18 565.398 217.545 565.393 217.816C565.358 219.226 564.292 219.986 563.901 219.973C563.571 219.969 562.826 219.712 562.544 219.007C562.23 218.253 561.88 217.729 561.46 217.727C561.28 217.73 560.922 217.807 560.793 217.889C560.486 218.065 560.146 218.591 559.742 219.518C558.858 221.505 558.57 223.81 558.542 225.041C558.518 225.882 559.337 226.917 560.207 226.941C560.597 226.954 561.114 226.785 562.431 225.491C562.804 225.104 562.953 225.051 563.103 225.058C563.374 225.063 563.521 225.461 563.514 225.641C563.511 226.001 563.407 226.333 563.133 226.708C562.051 228.218 560.281 229.38 557.8 229.315C556.389 229.281 555.122 228.384 554.722 227.241C554.585 226.873 554.507 225.884 554.525 225.194C554.544 224.083 554.921 222.236 555.823 220.66C556.821 218.911 557.952 217.831 559.378 217.075C560.587 216.443 561.793 216.231 562.874 216.251C563.594 216.268 564.631 216.649 564.957 216.953L564.957 216.963Z" fill="#FFFEF7"/>
<path d="M580.193 219.937C580.028 223.501 578.256 226.153 577.779 226.882C577.136 227.814 576.049 228.574 574.881 229.215C574.138 229.628 572.894 229.991 572.624 229.986C571.754 229.952 571.031 229.255 571.053 228.834C571.075 228.384 571.71 227.542 572.115 227.295C572.174 227.234 572.414 227.219 572.505 227.248C572.737 227.354 573.55 228.079 573.91 228.092C574.21 228.107 574.239 228.046 574.473 227.702C575.123 226.59 576.256 222.859 576.348 220.757C576.398 219.676 575.993 219.383 575.572 219.371C575.032 219.351 574.546 219.599 573.662 220.486C571.963 222.207 570.417 225.175 568.827 228.495C568.489 229.201 568.055 229.539 567.845 229.533C567.365 229.511 566.418 229.138 566.049 228.665C565.793 228.32 565.852 227.698 566.039 226.985C566.321 225.98 569.807 214.184 570.238 212.576C570.343 212.284 570.177 211.947 570.146 211.908C569.327 211.423 568.71 211.064 568.696 210.794C568.702 210.584 569.053 210.117 569.302 210.043C570.306 209.725 573.675 209.614 574.306 209.642C574.426 209.64 574.892 210.002 574.637 210.826C573.988 213.108 572.536 216.825 571.605 220.123C571.606 220.183 571.682 220.512 571.869 220.348C573 219.257 573.786 218.513 575.082 217.729C576.319 216.977 577.166 216.831 578.188 216.883C579.148 216.925 580.291 218.145 580.213 219.947L580.193 219.937Z" fill="#FFFEF7"/>
<path d="M590.037 215.068C590.021 215.309 589.468 216.779 589.105 217.746C589.029 217.977 589.142 218.105 589.322 218.122L591.835 218.256C591.955 218.254 592.051 218.602 592.043 218.722C592.027 218.933 591.589 220.141 591.318 220.086C590.426 219.962 589.554 219.878 588.661 219.754C588.511 219.747 588.324 219.91 588.285 219.971C587.56 221.874 586.637 223.951 585.942 225.894C585.58 226.891 585.893 227.035 585.983 227.044C586.344 227.067 587.66 226.313 588.706 225.514C588.834 225.432 589.162 225.846 589.147 226.146C589.116 226.627 588.747 227.204 588.422 227.51C587.43 228.498 584.255 230.456 582.643 230.345C581.711 230.282 581.28 229.109 581.311 228.629C581.31 228.539 581.448 227.886 581.705 227.181C582.145 226.063 583.61 222.466 584.593 219.888C584.631 219.767 584.617 219.527 584.497 219.519C584.226 219.504 583.604 219.406 582.943 219.328C582.762 219.281 582.6 219.154 582.615 218.883C582.646 218.403 583.135 217.774 583.225 217.782C583.555 217.806 584.877 217.862 585.146 217.847C585.176 217.847 585.463 217.662 585.491 217.571C585.686 217.287 586.667 215.669 587.113 214.911C587.317 214.567 588.105 214.463 588.286 214.48C589.097 214.535 590.033 214.868 590.017 215.079L590.037 215.068Z" fill="#FFFEF7"/>
<path d="M607.648 219.95C607.648 219.95 607.838 219.906 607.866 219.816C608.011 219.523 608.143 219.121 608.408 218.836C608.575 218.673 609.064 218.594 609.334 218.619C609.725 218.652 610.36 218.92 610.807 219.292C611.091 219.527 611.268 219.904 611.242 220.145C611.217 220.385 608.386 227.508 608.03 228.864C607.983 229.015 608.004 229.105 608.065 229.134C608.177 229.232 608.297 229.249 608.387 229.248C608.658 229.273 609.659 228.785 610.755 227.985C611.011 227.8 611.445 227.982 611.412 228.403C611.379 228.793 611.204 229.077 610.961 229.451C610.133 230.676 608.045 232.415 605.42 232.182C604.739 232.124 603.887 231.47 603.936 230.879C603.978 230.428 604.528 229.338 604.95 228.32C605.066 228.088 604.696 228.115 604.529 228.288C603.469 229.397 600.511 231.751 598.398 231.569C598.037 231.536 597.229 231.13 596.985 230.875C596.649 230.541 596.519 230.023 596.552 229.603C596.643 228.591 597.641 226.812 598.855 225.38C600.706 223.196 603.088 221.093 605.141 220.095C605.924 219.711 606.233 219.655 606.623 219.688C606.804 219.705 607.426 219.824 607.649 219.96L607.648 219.95ZM603.616 222.633C601.944 224.144 601.182 226.268 601.074 227.5C601.05 227.831 601.283 228.517 601.764 228.558C602.305 228.608 602.946 228.156 603.939 227.188C605.423 225.751 605.781 225.064 606.641 222.848C606.717 222.617 606.682 222.338 606.549 222.18C606.303 221.884 605.892 221.822 605.712 221.805C604.84 221.731 604.335 222.01 603.617 222.643L603.616 222.633Z" fill="#FFFEF7"/>
<path d="M623.695 221.839C623.695 221.839 623.884 221.805 623.923 221.715C624.078 221.432 624.22 221.029 624.495 220.754C624.662 220.591 625.161 220.532 625.422 220.567C625.813 220.61 626.438 220.909 626.875 221.291C627.15 221.536 627.307 221.923 627.281 222.164C627.246 222.405 624.162 229.422 623.757 230.769C623.709 230.91 623.731 231.01 623.782 231.049C623.894 231.157 624.004 231.165 624.094 231.183C624.365 231.218 625.387 230.77 626.513 229.999C626.78 229.824 627.204 230.027 627.151 230.438C627.099 230.829 626.913 231.102 626.66 231.467C625.781 232.653 623.641 234.322 621.025 233.999C620.343 233.912 619.521 233.237 619.59 232.645C619.642 232.194 620.233 231.123 620.695 230.125C620.81 229.893 620.451 229.909 620.274 230.072C619.173 231.142 616.143 233.398 614.028 233.136C613.667 233.093 612.879 232.657 612.634 232.391C612.318 232.047 612.199 231.519 612.251 231.108C612.373 230.096 613.441 228.356 614.707 226.973C616.638 224.857 619.092 222.833 621.176 221.915C621.98 221.56 622.289 221.514 622.67 221.557C622.85 221.584 623.463 221.713 623.685 221.869L623.695 221.839ZM619.56 224.374C617.836 225.826 617.004 227.921 616.846 229.144C616.802 229.475 617.025 230.161 617.496 230.223C618.027 230.293 618.69 229.861 619.713 228.932C621.248 227.554 621.636 226.877 622.566 224.69C622.652 224.458 622.627 224.189 622.494 224.021C622.259 223.725 621.847 223.643 621.667 223.616C620.805 223.512 620.289 223.771 619.55 224.375L619.56 224.374Z" fill="#FFFEF7"/>
<path d="M643.116 226.117C643.018 226.769 642.856 227.202 642.491 228.029C641.808 229.531 640.887 231.158 639.938 232.856C639.812 233.078 639.987 233.345 640.107 233.363C640.408 233.408 641.638 232.865 642.341 232.462C642.539 232.339 642.885 232.662 642.831 233.023C642.777 233.355 642.388 233.952 641.973 234.259C640.623 235.324 638.213 236.448 636.137 236.135C635.425 236.028 635.081 235.274 635.056 235.035C635.02 234.665 635.044 234.335 635.55 233.566C636.464 232.159 639.042 227.601 639.422 226.504C639.47 226.363 639.521 225.852 639.079 225.78C638.427 225.682 637.188 226.855 635.964 228.277C634.045 230.532 631.91 233.582 631.312 234.303C630.794 234.922 630.38 235.25 630.139 235.214C629.046 235.044 628.325 233.937 628.424 233.315C628.478 232.954 628.715 232.239 629.152 231.511C630.201 229.822 631.729 226.924 632.164 226.116C632.455 225.61 632.139 225.296 632.079 225.287C631.578 225.206 630.923 225.508 630.088 225.803C629.412 226.036 629.295 225.648 629.339 225.327C629.357 225.207 629.519 224.774 629.636 224.581C630.415 223.427 632.454 222.25 634.56 222.572C635.513 222.715 635.82 223.669 635.74 224.211C635.633 224.893 634.857 226.227 634.44 226.985C634.362 227.096 634.534 227.183 634.672 227.05C635.793 226.04 637.562 224.818 638.711 224.237C639.633 223.77 640.498 223.474 641.621 223.644C642.513 223.778 643.314 224.903 643.126 226.117L643.116 226.117Z" fill="#FFFEF7"/>
</g>
<defs>
<clipPath id="clip0_514_3413">
<rect width="1069" height="397" fill="white"/>
</clipPath>
</defs>
</svg>
