<svg width="1004" height="1029" viewBox="0 0 1004 1029" fill="none" xmlns="http://www.w3.org/2000/svg">
<g clip-path="url(#clip0_514_3640)">
<path d="M418.387 202.233C420.108 203.372 421.219 205.612 421.554 207.537C422.202 211.325 420.338 216.08 415.608 218.296C413.773 219.16 412.5 219.533 410.406 219.891C408.541 220.215 406.234 220.396 405.606 220.498C405.018 220.599 403.146 221.073 402.348 221.207C401.79 221.307 401.087 221.15 400.989 220.712C400.933 220.353 401.375 219.915 402.102 219.731C403.993 219.227 404.198 218.973 404.444 216.558C404.615 214.915 405.294 207.161 405.31 205.851C405.349 204.14 405.226 203.952 403.496 203.973C403.166 203.979 402.395 203.923 402.35 203.654C402.253 203.246 402.624 202.789 403.252 202.678C403.751 202.589 404.38 202.517 404.818 202.409C406.492 202.059 409.749 201.35 411.225 201.093C414.954 200.455 417.051 201.367 418.387 202.233ZM410.322 203.13C410.179 203.522 409.973 204.286 409.773 206.48C409.573 208.704 408.912 215.847 408.871 216.308C408.825 216.559 408.858 217.288 409.154 217.603C409.704 218.143 410.618 218.357 410.977 218.29C412.014 218.111 413.381 217.386 414.127 216.593C415.52 215.107 416.041 214.078 416.458 212.81C416.8 211.773 417.004 209.249 416.803 208.093C416.669 207.325 416.269 205.692 415.682 204.753C414.795 203.288 412.767 202.305 411.292 202.552C411.112 202.585 410.427 202.848 410.322 203.109L410.322 203.13Z" fill="#FFFEF7"/>
<path d="M435.852 207.877C436.221 210.551 435.208 213.69 433.209 215.456C432.372 216.181 430.925 216.868 429.737 217.029C427.153 217.386 425.005 215.265 424.682 212.92C424.268 209.947 425.465 207.025 427.145 205.364C427.725 204.764 429.557 203.76 430.684 203.6C433.567 203.198 435.484 205.203 435.852 207.877ZM429.552 206.791C428.41 209.462 428.315 212.504 428.544 214.11C428.682 215.118 429.589 215.482 429.908 215.436C430.357 215.378 430.503 215.115 430.861 214.489C431.793 212.901 432.51 208.898 432.155 206.404C432.064 205.775 431.529 204.975 430.97 205.055C430.611 205.102 430.166 205.35 429.552 206.801L429.552 206.791Z" fill="#FFFEF7"/>
<path d="M447.147 201.961C448.184 202.352 448.918 203.149 449.026 204.097C449.156 205.225 448.387 206.409 447.589 207.044C446.288 208.098 444.38 208.772 442.696 209.123C442.576 209.135 442.421 209.398 442.412 209.488C442.359 209.859 442.35 210.489 442.448 211.448C442.461 211.598 442.567 211.946 442.872 212.21C443.411 212.72 444.322 212.764 444.532 212.74C445.041 212.681 446.216 211.879 447.177 210.802C447.382 210.538 447.669 210.383 447.819 210.36C447.969 210.337 448.226 210.733 448.261 211.032C448.332 211.631 447.913 212.219 447.551 212.685C446.74 213.72 445.343 215.026 442.698 215.334C440.852 215.547 439.3 214.365 438.649 212.667C438.607 212.548 438.499 212.109 438.464 211.81C438.132 208.946 439.504 205.2 441.741 203.339C442.371 202.818 443.876 201.94 445.483 201.761C446.022 201.701 446.664 201.81 447.167 201.961L447.147 201.961ZM442.735 207.402C442.736 207.492 442.86 207.72 442.95 207.708C444.126 207.447 446.041 205.502 445.849 203.775C445.79 203.266 445.377 203.073 445.227 203.096C444.239 203.214 443.15 205.514 442.735 207.402Z" fill="#FFFEF7"/>
<path d="M470.56 202.447C470.844 206.002 469.426 208.858 469.03 209.646C468.508 210.655 467.524 211.543 466.448 212.323C465.767 212.825 464.576 213.347 464.307 213.372C463.438 213.438 462.637 212.842 462.609 212.423C462.571 211.973 463.105 211.063 463.469 210.757C463.528 210.696 463.757 210.641 463.848 210.67C464.099 210.745 464.99 211.359 465.35 211.333C465.65 211.307 465.678 211.247 465.852 210.873C466.36 209.694 467.011 205.842 466.843 203.754C466.753 202.676 466.319 202.444 465.9 202.481C465.36 202.521 464.906 202.829 464.144 203.823C462.678 205.75 461.515 208.882 460.348 212.374C460.111 213.118 459.718 213.505 459.509 213.529C459.029 213.568 458.045 213.315 457.617 212.903C457.322 212.598 457.3 211.969 457.387 211.237C457.548 210.204 459.508 198.066 459.739 196.422C459.803 196.111 459.597 195.804 459.567 195.775C458.69 195.391 458.045 195.112 457.99 194.853C457.976 194.644 458.267 194.138 458.495 194.034C459.457 193.597 462.778 193.056 463.407 193.005C463.527 193.003 464.032 193.284 463.888 194.136C463.54 196.483 462.55 200.352 462.052 203.731C462.053 203.791 462.168 204.109 462.335 203.916C463.323 202.698 464.008 201.855 465.191 200.914C466.325 200.013 467.14 199.758 468.159 199.68C469.118 199.602 470.407 200.669 470.55 202.467L470.56 202.447Z" fill="#FFFEF7"/>
<path d="M482.182 199.205C483.201 199.657 483.876 200.495 483.933 201.454C483.994 202.593 483.154 203.719 482.325 204.314C480.962 205.289 479.012 205.854 477.317 206.105C477.197 206.107 477.031 206.36 477.003 206.451C476.929 206.812 476.881 207.453 476.938 208.412C476.941 208.562 477.028 208.921 477.313 209.205C477.823 209.746 478.735 209.85 478.945 209.836C479.454 209.807 480.671 209.075 481.703 208.056C481.928 207.802 482.226 207.666 482.376 207.653C482.526 207.651 482.763 208.056 482.778 208.356C482.809 208.956 482.36 209.524 481.967 209.961C481.095 210.947 479.627 212.164 476.959 212.322C475.101 212.426 473.618 211.163 473.066 209.413C473.034 209.293 472.946 208.845 472.93 208.545C472.768 205.667 474.362 201.998 476.701 200.275C477.362 199.783 478.918 199.005 480.527 198.915C481.066 198.886 481.709 199.024 482.193 199.215L482.182 199.205ZM477.455 204.372C477.457 204.462 477.561 204.7 477.651 204.689C478.848 204.497 480.875 202.67 480.773 200.931C480.744 200.422 480.34 200.209 480.19 200.212C479.201 200.27 477.971 202.502 477.445 204.362L477.455 204.372Z" fill="#FFFEF7"/>
<path d="M492.903 195.85C492.908 196.09 492.515 197.608 492.253 198.603C492.198 198.844 492.33 198.961 492.51 198.948L495.028 198.822C495.148 198.82 495.283 199.138 495.286 199.258C495.289 199.468 494.982 200.714 494.711 200.688C493.811 200.665 492.941 200.661 492.04 200.637C491.89 200.64 491.714 200.833 491.685 200.893C491.16 202.863 490.459 205.016 489.965 207.016C489.704 208.041 490.036 208.155 490.126 208.153C490.486 208.146 491.71 207.254 492.674 206.346C492.792 206.254 493.169 206.627 493.174 206.927C493.183 207.407 492.884 208.023 492.6 208.358C491.71 209.444 488.76 211.708 487.141 211.768C486.212 211.804 485.661 210.684 485.643 210.205C485.641 210.115 485.709 209.453 485.886 208.72C486.205 207.564 487.297 203.833 488.009 201.17C488.037 201.05 488.003 200.81 487.873 200.813C487.603 200.817 486.972 200.789 486.312 200.781C486.131 200.754 485.949 200.647 485.934 200.378C485.926 199.898 486.343 199.22 486.433 199.218C486.763 199.212 488.082 199.128 488.351 199.084C488.381 199.083 488.637 198.858 488.666 198.768C488.83 198.465 489.639 196.75 490.005 195.953C490.168 195.59 490.945 195.406 491.125 195.403C491.935 195.368 492.899 195.611 492.913 195.82L492.903 195.85Z" fill="#FFFEF7"/>
<path d="M505.157 191.537C506.085 191.41 508.569 191.085 509.469 191.069C509.739 191.064 510.04 191.659 509.843 192.382C508.747 196.443 506.395 204.657 505.826 207.458C505.744 207.909 505.844 208.478 506.134 208.472C506.704 208.462 507.839 207.581 508.4 207.131C508.578 207.008 508.942 207.211 508.946 207.451C508.952 207.751 508.831 208.233 508.685 208.476C507.529 210.347 505.416 211.326 503.646 211.348C502.836 211.363 501.99 210.498 501.974 209.598C501.951 208.308 502.889 204.881 503.263 203.434C504.274 199.645 505.404 195.223 505.718 193.807C505.773 193.506 505.647 193.179 504.693 192.946C504.301 192.863 504.057 192.627 504.053 192.407C504.047 192.107 504.499 191.619 505.157 191.527L505.157 191.537Z" fill="#FFFEF7"/>
<path d="M517.418 199.776C517.424 200.106 517.201 200.5 517.079 200.912C516.832 201.627 515.014 206.721 514.71 207.586C514.681 207.647 514.766 207.916 514.886 207.913C515.275 207.906 516.177 207.41 516.778 206.929C517.015 206.755 517.293 206.629 517.413 206.627C517.533 206.625 517.707 206.842 517.71 207.022C517.704 207.802 517.253 208.28 516.92 208.697C515.864 210.016 513.487 211.289 511.716 211.281C511.236 211.28 510.462 210.524 510.464 210.074C510.457 209.714 510.587 209.142 510.769 208.698C510.952 208.305 512.41 204.298 513.168 202.024C513.377 201.4 513.144 201.244 513.084 201.245C512.694 201.252 511.608 201.992 511.035 202.402C510.917 202.494 510.528 202.011 510.525 201.861C510.527 201.411 510.71 201.018 511.013 200.662C511.767 199.769 514.388 198.131 516.248 198.137C516.608 198.13 517.413 198.926 517.408 199.766L517.418 199.776ZM518.167 194.202C518.168 194.802 517.528 195.883 517.261 196.058C516.925 196.264 516.448 196.443 516.058 196.44C515.277 196.434 514.376 195.801 514.387 194.78C514.397 193.64 515.053 192.898 515.389 192.652C515.695 192.416 516.054 192.36 516.384 192.354C517.854 192.357 518.178 193.681 518.177 194.191L518.167 194.202Z" fill="#FFFEF7"/>
<path d="M529.958 199.059C530.162 199.275 530.399 199.641 530.393 199.911C530.359 201.322 529.293 202.082 528.902 202.069C528.572 202.065 527.827 201.808 527.545 201.103C527.231 200.349 526.881 199.825 526.461 199.823C526.281 199.826 525.923 199.902 525.794 199.985C525.487 200.16 525.147 200.687 524.743 201.614C523.859 203.6 523.571 205.906 523.543 207.137C523.519 207.977 524.338 209.013 525.208 209.037C525.598 209.05 526.115 208.88 527.432 207.586C527.805 207.199 527.954 207.147 528.104 207.154C528.375 207.159 528.522 207.557 528.515 207.737C528.512 208.097 528.408 208.429 528.134 208.804C527.052 210.314 525.282 211.476 522.801 211.411C521.39 211.376 520.123 210.479 519.723 209.336C519.586 208.969 519.508 207.98 519.526 207.29C519.545 206.179 519.922 204.332 520.823 202.755C521.822 201.007 522.953 199.926 524.379 199.17C525.588 198.538 526.794 198.326 527.875 198.347C528.595 198.364 529.632 198.745 529.958 199.049L529.958 199.059Z" fill="#FFFEF7"/>
<path d="M545.194 202.033C545.028 205.596 543.256 208.249 542.779 208.978C542.136 209.91 541.05 210.669 539.881 211.311C539.139 211.724 537.895 212.087 537.625 212.082C536.754 212.047 536.031 211.35 536.054 210.93C536.075 210.48 536.71 209.638 537.116 209.39C537.175 209.329 537.415 209.315 537.505 209.343C537.737 209.449 538.55 210.175 538.911 210.188C539.211 210.203 539.24 210.142 539.474 209.798C540.124 208.686 541.256 204.955 541.348 202.853C541.398 201.772 540.993 201.479 540.573 201.466C540.032 201.446 539.547 201.695 538.663 202.581C536.964 204.302 535.417 207.271 533.827 210.59C533.49 211.297 533.056 211.634 532.846 211.628C532.365 211.607 531.418 211.234 531.05 210.761C530.793 210.415 530.852 209.794 531.039 209.081C531.321 208.075 534.808 196.28 535.239 194.672C535.343 194.38 535.177 194.043 535.146 194.004C534.328 193.518 533.711 193.16 533.696 192.89C533.702 192.68 534.054 192.213 534.302 192.139C535.307 191.82 538.675 191.709 539.306 191.738C539.426 191.736 539.893 192.097 539.638 192.922C538.989 195.204 537.536 198.921 536.606 202.219C536.607 202.279 536.683 202.607 536.87 202.444C538 201.353 538.787 200.609 540.083 199.825C541.319 199.073 542.167 198.927 543.188 198.979C544.149 199.021 545.291 200.241 545.214 202.042L545.194 202.033Z" fill="#FFFEF7"/>
<path d="M555.037 197.164C555.022 197.404 554.468 198.874 554.106 199.841C554.03 200.073 554.142 200.201 554.322 200.217L556.835 200.352C556.955 200.35 557.052 200.698 557.044 200.818C557.028 201.028 556.589 202.237 556.318 202.181C555.426 202.058 554.554 201.973 553.662 201.85C553.512 201.842 553.325 202.006 553.286 202.066C552.56 203.97 551.638 206.047 550.943 207.99C550.581 208.987 550.894 209.131 550.984 209.139C551.344 209.163 552.661 208.409 553.706 207.61C553.835 207.527 554.162 207.942 554.148 208.242C554.117 208.723 553.747 209.299 553.423 209.605C552.43 210.593 549.255 212.551 547.643 212.441C546.712 212.377 546.28 211.205 546.312 210.724C546.31 210.634 546.448 209.982 546.706 209.277C547.145 208.159 548.61 204.562 549.594 201.983C549.631 201.863 549.617 201.623 549.497 201.615C549.227 201.6 548.605 201.501 547.943 201.423C547.762 201.377 547.6 201.249 547.615 200.979C547.646 200.498 548.135 199.87 548.225 199.878C548.556 199.902 549.877 199.958 550.147 199.943C550.177 199.943 550.463 199.757 550.492 199.667C550.687 199.383 551.668 197.765 552.114 197.007C552.318 196.663 553.106 196.559 553.286 196.576C554.097 196.631 555.034 196.964 555.017 197.174L555.037 197.164Z" fill="#FFFEF7"/>
<path d="M572.649 202.045C572.649 202.045 572.838 202.002 572.866 201.911C573.011 201.619 573.144 201.216 573.409 200.931C573.576 200.768 574.064 200.69 574.335 200.715C574.726 200.748 575.361 201.016 575.807 201.388C576.092 201.623 576.269 202 576.243 202.24C576.217 202.481 573.386 209.603 573.031 210.96C572.983 211.111 573.005 211.2 573.066 211.229C573.177 211.327 573.298 211.345 573.388 211.344C573.658 211.369 574.659 210.88 575.755 210.08C576.012 209.896 576.445 210.078 576.413 210.499C576.38 210.889 576.205 211.172 575.962 211.547C575.134 212.772 573.045 214.51 570.42 214.278C569.739 214.22 568.887 213.566 568.936 212.975C568.978 212.524 569.529 211.434 569.95 210.416C570.066 210.184 569.696 210.21 569.53 210.383C568.47 211.493 565.512 213.847 563.398 213.665C563.037 213.632 562.23 213.226 561.985 212.971C561.649 212.637 561.52 212.119 561.552 211.698C561.644 210.686 562.642 208.908 563.856 207.476C565.707 205.292 568.089 203.188 570.141 202.191C570.924 201.807 571.233 201.751 571.624 201.784C571.804 201.801 572.427 201.919 572.649 202.055L572.649 202.045ZM568.617 204.729C566.944 206.24 566.182 208.364 566.075 209.596C566.051 209.926 566.283 210.612 566.764 210.654C567.305 210.704 567.947 210.252 568.94 209.284C570.424 207.847 570.781 207.16 571.641 204.944C571.717 204.713 571.682 204.433 571.549 204.276C571.304 203.98 570.893 203.918 570.712 203.901C569.841 203.827 569.336 204.106 568.617 204.739L568.617 204.729Z" fill="#FFFEF7"/>
<path d="M588.695 203.935C588.695 203.935 588.885 203.901 588.923 203.81C589.078 203.528 589.221 203.125 589.496 202.85C589.663 202.687 590.162 202.628 590.423 202.663C590.813 202.706 591.439 203.005 591.876 203.387C592.15 203.632 592.307 204.019 592.282 204.26C592.246 204.5 589.163 211.517 588.757 212.865C588.71 213.006 588.732 213.105 588.782 213.145C588.894 213.253 589.005 213.261 589.095 213.279C589.366 213.314 590.388 212.865 591.514 212.095C591.781 211.92 592.204 212.122 592.152 212.533C592.099 212.924 591.914 213.198 591.66 213.562C590.782 214.749 588.642 216.418 586.026 216.095C585.344 216.007 584.521 215.332 584.591 214.741C584.643 214.29 585.233 213.219 585.695 212.22C585.811 211.988 585.451 212.005 585.274 212.168C584.173 213.238 581.144 215.494 579.029 215.232C578.668 215.188 577.88 214.753 577.635 214.487C577.319 214.143 577.199 213.615 577.252 213.204C577.373 212.191 578.442 210.452 579.707 209.068C581.639 206.953 584.093 204.928 586.176 204.01C586.98 203.656 587.289 203.61 587.67 203.653C587.851 203.68 588.463 203.809 588.686 203.965L588.695 203.935ZM584.561 206.47C582.837 207.922 582.005 210.017 581.847 211.24C581.803 211.571 582.025 212.257 582.496 212.318C583.028 212.389 583.69 211.957 584.713 211.028C586.249 209.65 586.636 208.973 587.567 206.786C587.653 206.554 587.628 206.284 587.495 206.117C587.259 205.821 586.848 205.738 586.667 205.712C585.805 205.607 585.29 205.867 584.551 206.47L584.561 206.47Z" fill="#FFFEF7"/>
<path d="M608.116 208.213C608.018 208.865 607.856 209.298 607.491 210.125C606.808 211.627 605.887 213.254 604.938 214.952C604.812 215.174 604.987 215.441 605.107 215.459C605.408 215.503 606.638 214.961 607.341 214.558C607.539 214.434 607.885 214.758 607.831 215.119C607.777 215.45 607.388 216.047 606.973 216.355C605.623 217.42 603.213 218.544 601.137 218.231C600.425 218.124 600.081 217.37 600.056 217.131C600.02 216.761 600.044 216.431 600.55 215.661C601.464 214.255 604.042 209.697 604.422 208.6C604.47 208.459 604.521 207.948 604.079 207.876C603.427 207.778 602.188 208.951 600.964 210.373C599.045 212.628 596.91 215.677 596.312 216.398C595.794 217.018 595.38 217.345 595.139 217.31C594.046 217.14 593.325 216.032 593.424 215.411C593.478 215.049 593.715 214.335 594.152 213.607C595.201 211.918 596.729 209.02 597.164 208.212C597.455 207.706 597.139 207.392 597.079 207.383C596.578 207.302 595.923 207.604 595.088 207.899C594.412 208.131 594.295 207.743 594.339 207.423C594.357 207.302 594.519 206.869 594.636 206.677C595.415 205.523 597.454 204.346 599.56 204.667C600.513 204.81 600.82 205.765 600.74 206.306C600.633 206.988 599.857 208.323 599.44 209.08C599.362 209.192 599.534 209.279 599.672 209.146C600.793 208.136 602.562 206.913 603.711 206.332C604.633 205.866 605.498 205.57 606.621 205.74C607.513 205.873 608.314 206.999 608.126 208.213L608.116 208.213Z" fill="#FFFEF7"/>
</g>
<defs>
<clipPath id="clip0_514_3640">
<rect width="1004" height="1029" fill="white"/>
</clipPath>
</defs>
</svg>
