<svg width="100" height="100" viewBox="0 0 100 100" fill="none" xmlns="http://www.w3.org/2000/svg">
<path d="M53.76 56.196H45.124C44.716 56.196 44.308 55.788 44.308 55.38C44.784 42.392 55.868 41.304 55.868 35.048C55.868 30.968 53.148 28.724 49.272 28.656C44.716 28.588 42.54 31.036 42.268 35.796C42.268 36.272 41.86 36.612 41.452 36.612H33.36C32.952 36.612 32.544 36.204 32.612 35.796C33.224 26.684 39.276 21.788 49.816 21.788C59.064 21.788 66.068 26.616 66.068 35.252C66.068 45.656 55.188 45.384 54.576 55.38C54.576 55.856 54.168 56.196 53.76 56.196ZM53.76 70H45.056C44.648 70 44.24 69.592 44.24 69.184V61.024C44.24 60.616 44.648 60.208 45.056 60.208H53.76C54.168 60.208 54.576 60.616 54.576 61.024V69.184C54.576 69.592 54.168 70 53.76 70Z" fill="#162113"/>
</svg>
