<svg width="65" height="66" viewBox="0 0 65 66" fill="none" xmlns="http://www.w3.org/2000/svg">
<g id="Group 31">
<path id="money_bag" d="M19.332 65.22C13.9023 65.22 9.32292 63.3554 5.59375 59.6263C1.86458 55.8971 0 51.3177 0 45.888C0 43.6207 0.387834 41.413 1.1635 39.265C1.93917 37.117 3.043 35.1778 4.475 33.4475L16.3499 19.1474C16.8568 18.5371 16.9549 17.6848 16.6001 16.9753L9.94972 3.67441C9.28482 2.34461 10.2518 0.77998 11.7386 0.77998H52.7015C54.1882 0.77998 55.1552 2.3446 54.4903 3.67441L47.8399 16.9753C47.4851 17.6848 47.5833 18.5371 48.0901 19.1474L59.965 33.4475C61.397 35.1778 62.5009 37.117 63.2765 39.265C64.0522 41.413 64.44 43.6207 64.44 45.888C64.44 51.3177 62.5605 55.8971 58.8015 59.6263C55.0425 63.3554 50.478 65.22 45.108 65.22H19.332ZM32.22 47.32C30.251 47.32 28.5654 46.6189 27.1633 45.2168C25.7611 43.8146 25.06 42.129 25.06 40.16C25.06 38.191 25.7611 36.5054 27.1633 35.1033C28.5654 33.7011 30.251 33 32.22 33C34.189 33 35.8746 33.7011 37.2768 35.1033C38.6789 36.5054 39.38 38.191 39.38 40.16C39.38 42.129 38.6789 43.8146 37.2768 45.2168C35.8746 46.6189 34.189 47.32 32.22 47.32ZM23.1647 13.9944C23.5035 14.672 24.196 15.1 24.9536 15.1H39.4865C40.244 15.1 40.9365 14.672 41.2753 13.9944L42.8553 10.8344C43.5202 9.50461 42.5532 7.93998 41.0665 7.93998H23.3736C21.8868 7.93998 20.9198 9.50461 21.5847 10.8344L23.1647 13.9944ZM19.332 58.06H45.108C48.509 58.06 51.388 56.8816 53.7448 54.5248C56.1016 52.1679 57.28 49.289 57.28 45.888C57.28 44.456 57.0265 43.0688 56.5193 41.7263C56.0121 40.3838 55.311 39.1755 54.416 38.1015L41.8593 22.9822C41.4794 22.5247 40.9155 22.26 40.3207 22.26H24.2013C23.6109 22.26 23.0506 22.5209 22.6706 22.9728L10.024 38.012C9.12901 39.086 8.42792 40.3092 7.92076 41.6815C7.41359 43.0538 7.16 44.456 7.16 45.888C7.16 49.289 8.33842 52.1679 10.6953 54.5248C13.0521 56.8816 15.931 58.06 19.332 58.06Z" fill="#162113"/>
</g>
</svg>
